<?xml version="1.0" encoding="UTF-8"?>
<svg width="16px" height="16px" viewBox="0 0 16 16" version="1.1" xmlns="http://www.w3.org/2000/svg" xmlns:xlink="http://www.w3.org/1999/xlink">
    <!-- Generator: Sketch 53 (72520) - https://sketchapp.com -->
    <title>Icons/Instagram Icon</title>
    <desc>Created with Sketch.</desc>
    <g id="Components" stroke="none" stroke-width="1" fill="none" fill-rule="evenodd">
        <g id="10.-Base-Elements" transform="translate(-1247.000000, -1870.000000)" fill="#67D54B">
            <g id="Icons" transform="translate(896.000000, 1430.000000)">
                <g id="Icons/Instagram-Icon" transform="translate(351.000000, 440.000000)">
                    <path d="M0,4.621152 C0,2.06896022 2.0691795,0 4.621152,0 L11.378848,0 C13.9310398,0 16,2.0691795 16,4.621152 L16,11.378848 C16,13.9310398 13.9308205,16 11.378848,16 L4.621152,16 C2.06896022,16 0,13.9308205 0,11.378848 L0,4.621152 L0,4.621152 L0,4.621152 L0,4.621152 Z M8,12.0689655 C10.2472276,12.0689655 12.0689655,10.2472276 12.0689655,8 C12.0689655,5.7527724 10.2472276,3.93103448 8,3.93103448 C5.7527724,3.93103448 3.93103448,5.7527724 3.93103448,8 C3.93103448,10.2472276 5.7527724,12.0689655 8,12.0689655 L8,12.0689655 L8,12.0689655 L8,12.0689655 Z M8,10.6206897 C9.44736693,10.6206897 10.6206897,9.44736693 10.6206897,8 C10.6206897,6.55263307 9.44736693,5.37931034 8,5.37931034 C6.55263307,5.37931034 5.37931034,6.55263307 5.37931034,8 C5.37931034,9.44736693 6.55263307,10.6206897 8,10.6206897 L8,10.6206897 L8,10.6206897 L8,10.6206897 Z M12.2068966,4.68965517 C12.740137,4.68965517 13.1724138,4.25737838 13.1724138,3.72413793 C13.1724138,3.19089748 12.740137,2.75862069 12.2068966,2.75862069 C11.6736561,2.75862069 11.2413793,3.19089748 11.2413793,3.72413793 C11.2413793,4.25737838 11.6736561,4.68965517 12.2068966,4.68965517 L12.2068966,4.68965517 L12.2068966,4.68965517 L12.2068966,4.68965517 Z" id="Instagram-Icon"></path>
                </g>
            </g>
        </g>
    </g>
</svg>