<?xml version="1.0" encoding="UTF-8"?>
<svg width="16px" height="14px" viewBox="0 0 16 14" version="1.1" xmlns="http://www.w3.org/2000/svg" xmlns:xlink="http://www.w3.org/1999/xlink">
    <!-- Generator: Sketch 52.6 (67491) - http://www.bohemiancoding.com/sketch -->
    <title>List Icon</title>
    <desc>Created with Sketch.</desc>
    <g id="Symbols" stroke="none" stroke-width="1" fill="none" fill-rule="evenodd">
        <g id="Icons/List-Icon" fill="#FFFFFF" fill-rule="nonzero">
            <path d="M16,12 C16,11.4477153 15.5522847,11 15,11 L6,11 C5.44771525,11 5,11.4477153 5,12 C5,12.5522847 5.44771525,13 6,13 L15,13 C15.5522847,13 16,12.5522847 16,12 L16,12 Z M16,7 C16,6.44771525 15.5522847,6 15,6 L6,6 C5.44771525,6 5,6.44771525 5,7 C5,7.55228475 5.44771525,8 6,8 L15,8 C15.5522847,8 16,7.55228475 16,7 L16,7 Z M16,2 C16,1.44771525 15.5522847,1 15,1 L6,1 C5.44771525,1 5,1.44771525 5,2 C5,2.55228475 5.44771525,3 6,3 L15,3 C15.5522847,3 16,2.55228475 16,2 L16,2 Z M2,14 C3.1045695,14 4,13.1045695 4,12 C4,10.8954305 3.1045695,10 2,10 C0.8954305,10 0,10.8954305 0,12 C0,13.1045695 0.8954305,14 2,14 L2,14 L2,14 L2,14 Z M2,9 C3.1045695,9 4,8.1045695 4,7 C4,5.8954305 3.1045695,5 2,5 C0.8954305,5 0,5.8954305 0,7 C0,8.1045695 0.8954305,9 2,9 L2,9 L2,9 L2,9 Z M2,4 C3.1045695,4 4,3.1045695 4,2 C4,0.8954305 3.1045695,0 2,0 C0.8954305,0 0,0.8954305 0,2 C0,3.1045695 0.8954305,4 2,4 L2,4 L2,4 L2,4 Z" id="List-Icon"></path>
        </g>
    </g>
</svg>