<?xml version="1.0" encoding="UTF-8"?>
<svg width="71px" height="53px" viewBox="0 0 71 53" version="1.1" xmlns="http://www.w3.org/2000/svg" xmlns:xlink="http://www.w3.org/1999/xlink">
    <!-- Generator: Sketch 53 (72520) - https://sketchapp.com -->
    <title>logo</title>
    <desc>Created with Sketch.</desc>
    <g id="Symbols" stroke="none" stroke-width="1" fill="none" fill-rule="evenodd">
        <g id="logos">
            <g id="logo">
                <path d="M64.9136496,36 L59.6906863,36 C59.8960896,35.8476772 60.0661712,35.7158166 60.1730993,35.6156491 C60.7363484,35.0880117 60.9866814,33.0947148 60.9866814,32.6843302 C60.9866814,32.2739455 60.4234322,31.2772971 60.4234322,30.8669124 L60.4234322,26.4113076 C60.4234322,25.8836702 59.6098501,25.8836702 59.6098501,26.4113076 C59.6098501,26.938945 58.7962679,27.3493296 58.7962679,27.5838352 C58.7962679,27.8769671 58.1078523,28.1114726 58.1078523,27.3493296 C58.1078523,26.5871867 57.5446031,26.469934 56.9813539,25.9422965 C56.4181048,25.4732855 56.2929383,25.8250438 55.7296891,26.469934 C55.1664399,27.1148241 55.2916064,26.7044395 55.2916064,27.3493296 C55.2916064,27.9942198 54.7283573,27.3493296 54.7283573,26.469934 C54.7283573,25.5319119 54.0399416,25.9422965 53.4766924,25.2974064 C52.9760265,24.6525162 51.9746946,24.3007579 51.1611125,24.5352634 C50.3475304,24.8283953 46.5925359,26.469934 44.276956,26.469934 C41.8987928,26.469934 39.9587123,25.3560328 39.0199637,24.9456481 C38.0812151,24.5352634 35.8282184,24.9456481 34.2010541,24.9456481 C32.5738898,24.9456481 32.5738898,25.23878 32.5738898,26.7630659 C32.5738898,28.2873517 33.137139,29.6943848 33.137139,30.9841652 L33.137139,33.1533412 C33.137139,33.6226623 33.7337609,35.0234836 34.0586173,36 L31.474597,36 C31.5099747,35.6378718 31.5099747,35.1655552 31.5099747,34.4431215 C31.5099747,32.6257038 31.1344753,33.0360884 30.6963926,32.508451 C30.2583099,31.9808136 30.4460596,31.6876817 30.0079769,30.6910333 C29.6324775,29.6357584 29.4447278,31.0427915 29.1943948,32.2153191 C29.0473371,32.8122787 29.0538595,34.0926203 29.2440355,36 L27.1291478,36 L27.1291478,33.3878467 C27.1291478,32.1566927 26.4407322,31.9808136 26.1903992,31.7463081 C25.9400662,31.4531762 26.1903992,30.5737805 26.1903992,29.9288903 C26.1903992,29.2840002 25.62715,28.5218572 25.62715,28.1114726 C25.62715,27.8183407 25.4394003,27.4665824 25.0639009,26.938945 C24.5006517,26.7630659 23.8748193,26.7044395 23.1238204,26.7044395 C21.997322,26.7044395 19.1184929,23.6558678 18.4300773,23.1282303 C17.7416616,22.6592193 15.4886649,17.0310869 15.238332,16.5034495 C14.987999,15.9758121 12.4846694,14.6860317 11.6710872,14.6860317 C10.8575051,14.6860317 8.91742461,14.1583943 6.85217764,13.9238888 C4.78693068,13.6307569 4.41143123,14.1583943 3.9107653,14.1583943 C3.41009937,14.1583943 2.22101779,13.9238888 1.65776861,13.9238888 C1.09451944,13.9238888 0.719019995,13.2789986 0.155770823,12.7513612 C-0.407478349,12.2237238 0.719019995,11.4615809 0.96935296,11.4615809 C1.21968593,11.4615809 3.47268261,8.99927296 3.72301558,8.76476744 C3.97334854,8.53026192 4.41143123,8.00262451 4.41143123,7.35773434 C4.41143123,6.71284417 4.78693068,6.59559141 5.22501337,5.95070124 C5.53792958,5.4816902 6.35151171,4.83680003 7.85350951,4.01603072 C7.60317654,3.60564607 7.35284357,3.25388779 7.16509385,3.01938228 C6.91476089,2.60899762 6.35151171,1.84685469 5.78826254,1.08471176 C5.22501337,0.322568835 5.35017985,0.322568835 5.78826254,0.322568835 C6.10117875,0.322568835 7.16509385,1.08471176 8.98000785,2.72625038 C9.04259109,2.55037124 9.10517433,2.31586573 9.10517433,2.08136021 C9.10517433,1.67097556 8.29159219,0.263942456 8.41675868,0.0294369388 C8.54192516,-0.205068578 9.48067378,1.02608539 10.043923,1.43647004 C10.6071721,1.84685469 12.2343364,3.01938228 12.2343364,3.25388779 C12.2343364,3.48839331 12.4220861,4.01603072 12.6724191,4.01603072 C12.9853353,4.01603072 13.1105018,3.72289883 13.1105018,3.60564607 C13.1105018,3.48839331 14.1744169,2.84350314 14.6124996,2.60899762 C15.0505823,2.37449211 15.0505823,2.25723935 15.3009152,3.25388779 C15.5512482,4.30916262 15.0505823,4.6609209 15.3009152,5.07130555 C15.5512482,5.4816902 16.6777465,5.59894296 18.0545778,5.59894296 L29.507311,5.59894296 C32.8242228,5.59894296 33.6378049,6.36108589 34.3262206,6.77147055 C35.0146362,7.1818552 37.0798832,6.77147055 38.331548,6.77147055 C39.5832129,6.77147055 45.3408711,6.00932762 47.2809515,5.59894296 C49.221032,5.18855831 56.6684377,4.30916262 61.7376803,4.30916262 C66.8695061,4.30916262 67.8082547,5.07130555 69.185086,6.71284417 C70.5619173,8.35438279 70.3115843,17.3242188 70.3115843,19.4933948 C70.3115843,21.6625709 71,22.307461 71,23.3041095 C71,24.3593843 70.749667,26.4113076 69.8735017,28.0528462 C68.9973363,29.6943848 69.185086,29.8116376 68.7470033,30.2220222 C68.3715039,30.5737805 68.7470033,28.6977364 68.4966703,27.5252088 C68.2463374,26.4113076 68.2463374,25.23878 68.4966703,23.8317469 C68.7470033,22.4247138 69.185086,21.5453181 69.185086,21.1349335 L69.185086,16.7965814 C69.185086,16.0344385 68.7470033,12.2823502 68.7470033,12.0478447 C68.7470033,11.8133392 67.119839,17.5587243 67.119839,18.0863617 C67.119839,18.5553728 64.9294256,21.5453181 64.4913429,22.5419666 C64.0532602,23.5972414 65.555258,25.23878 65.9933407,25.8836702 C66.4314234,26.5285603 66.4314234,26.8803186 65.9933407,28.0528462 C65.555258,29.1667474 64.8668424,34.0327369 64.8668424,35.3225172 C64.8668424,35.5848702 64.8835526,35.8106977 64.9136496,36 Z" id="Combined-Shape" fill="#FFFFFF"></path>
                <path d="M10.6759682,35 C11.2503858,32.0414247 9.04968418,30.6326556 10.5093631,31.8574114 C11.2614475,32.4884541 11.2275059,34.0340299 11.1674722,35 L11.539365,35 C11.6217924,34.7892057 11.7197309,34.5334958 11.8358059,34.2277081 C13.4318286,30.0231539 8.80733548,26.9190929 11.4022265,28.3560604 C13.9971176,29.793028 13.334321,36.3176491 13.334321,33.7374987 C13.334321,31.1573483 15.5636117,29.9843396 14.5658055,31.2502346 C14.0341453,31.9247403 14.2342469,33.9194807 14.5372444,35.0000006 L15.1234619,35 C15.1390377,34.7938655 15.1476644,34.5384219 15.1476644,34.2277081 C15.1476644,30.0231539 18.2770414,28.4736596 17.631452,29.1087375 C17.2076239,29.5256649 16.8872782,31.4894191 16.6704151,35 L70,35 L70,36 L4,36 L4,35 L10.6759682,35 Z" id="Combined-Shape" fill="#67D54B"></path>
                <path d="M11.822,52.032 C10.5379936,52.032 9.37700519,51.7530028 8.339,51.195 C7.30099481,50.6369972 6.48500297,49.863005 5.891,48.873 C5.29699703,47.8829951 5,46.7640062 5,45.516 C5,44.2679938 5.29699703,43.149005 5.891,42.159 C6.48500297,41.1689951 7.30099481,40.3950028 8.339,39.837 C9.37700519,39.2789972 10.5439935,39 11.84,39 C12.9320055,39 13.9189956,39.1919981 14.801,39.576 C15.6830044,39.9600019 16.423997,40.5119964 17.024,41.232 L15.152,42.96 C14.2999957,41.9759951 13.2440063,41.484 11.984,41.484 C11.2039961,41.484 10.5080031,41.6549983 9.896,41.997 C9.28399694,42.3390017 8.80700171,42.8159969 8.465,43.428 C8.12299829,44.0400031 7.952,44.7359961 7.952,45.516 C7.952,46.2960039 8.12299829,46.9919969 8.465,47.604 C8.80700171,48.2160031 9.28399694,48.6929983 9.896,49.035 C10.5080031,49.3770017 11.2039961,49.548 11.984,49.548 C13.2440063,49.548 14.2999957,49.050005 15.152,48.054 L17.024,49.782 C16.423997,50.5140037 15.6800044,51.0719981 14.792,51.456 C13.9039956,51.8400019 12.9140055,52.032 11.822,52.032 Z M27.332,49.116 L21.482,49.116 L20.366,51.816 L17.378,51.816 L22.994,39.216 L25.874,39.216 L31.508,51.816 L28.448,51.816 L27.332,49.116 Z M26.414,46.902 L24.416,42.078 L22.418,46.902 L26.414,46.902 Z M44.6780001,39.216 L44.6780001,51.816 L41.7620001,51.816 L41.7620001,46.65 L36.0380001,46.65 L36.0380001,51.816 L33.1220001,51.816 L33.1220001,39.216 L36.0380001,39.216 L36.0380001,44.184 L41.7620001,44.184 L41.7620001,39.216 L44.6780001,39.216 Z M47.9660001,39.216 L50.8820001,39.216 L50.8820001,49.44 L57.2000001,49.44 L57.2000001,51.816 L47.9660001,51.816 L47.9660001,39.216 Z M68.8940002,49.476 L68.8940002,51.816 L59.1380002,51.816 L59.1380002,39.216 L68.6600002,39.216 L68.6600002,41.556 L62.0360002,41.556 L62.0360002,44.292 L67.8860002,44.292 L67.8860002,46.56 L62.0360002,46.56 L62.0360002,49.476 L68.8940002,49.476 Z" id="CAHLE" fill="#FFFFFF"></path>
            </g>
        </g>
    </g>
</svg>