<?xml version="1.0" encoding="UTF-8"?>
<svg width="66px" height="42px" viewBox="0 0 66 42" version="1.1" xmlns="http://www.w3.org/2000/svg" xmlns:xlink="http://www.w3.org/1999/xlink">
    <!-- Generator: Sketch 52.6 (67491) - http://www.bohemiancoding.com/sketch -->
    <title>Group 3@2x</title>
    <desc>Created with Sketch.</desc>
    <g id="Page-1" stroke="none" stroke-width="1" fill="none" fill-rule="evenodd">
        <g id="Group-3" fill="#FFFFFF">
            <path d="M50.7696168,22 L47.2596559,22 C47.5017997,21.8257381 47.7152522,21.6731916 47.823311,21.5729971 C48.1679949,21.2533982 48.3211878,20.0460248 48.3211878,19.7974479 C48.3211878,19.548871 47.9765039,18.9451843 47.9765039,18.6966074 L47.9765039,15.9977727 C47.9765039,15.6781739 47.4786271,15.6781739 47.4786271,15.9977727 C47.4786271,16.3173716 46.9807503,16.5659485 46.9807503,16.7079924 C46.9807503,16.8855473 46.55947,17.0275912 46.55947,16.5659485 C46.55947,16.1043057 46.2147861,16.0332837 45.8701022,15.7136849 C45.5254182,15.429597 45.4488218,15.6426629 45.1041379,16.0332837 C44.759454,16.4239045 44.8360504,16.1753277 44.8360504,16.5659485 C44.8360504,16.9565693 44.4913665,16.5659485 44.4913665,16.0332837 C44.4913665,15.465108 44.0700862,15.7136849 43.7254022,15.3230641 C43.4190165,14.9324433 42.8062451,14.7193774 42.3083684,14.8614213 C41.8104916,15.0389762 39.5125988,16.0332837 38.095565,16.0332837 C36.6402329,16.0332837 35.4529883,15.3585751 34.8785151,15.1099982 C34.3040419,14.8614213 32.9253062,15.1099982 31.9295527,15.1099982 C30.9337992,15.1099982 30.9337992,15.2875531 30.9337992,16.2108386 C30.9337992,17.1341242 31.2784831,17.9863878 31.2784831,18.7676294 L31.2784831,20.0815358 C31.2784831,20.3987897 31.7332138,21.4187716 31.90403,22 L30.232661,22 C30.2827295,21.7551939 30.2827295,21.4414581 30.2827295,20.8627774 C30.2827295,19.7619369 30.0529403,20.0105138 29.7848528,19.690915 C29.5167653,19.3713161 29.6316599,19.1937612 29.3635724,18.5900745 C29.1337832,17.9508768 29.0188885,18.8031404 28.8656957,19.51336 C28.7707501,19.8948484 28.7804182,20.737088 28.9163126,22 L27.5693599,22 C27.5802533,21.9763237 27.5910849,21.9523586 27.6018547,21.9281069 L27.6018547,20.2235797 C27.6018547,19.4778491 27.1805743,19.3713161 27.0273815,19.2292722 C26.8741886,19.0517173 27.0273815,18.5190525 27.0273815,18.1284317 C27.0273815,17.7378109 26.6826975,17.2761681 26.6826975,17.0275912 C26.6826975,16.8500363 26.5678029,16.6369704 26.3380136,16.3173716 C25.9933297,16.2108386 25.6103476,16.1753277 25.150769,16.1753277 C24.4614012,16.1753277 22.6996834,14.3287565 22.2784031,14.0091577 C21.8571227,13.7250698 20.4783871,10.3160155 20.3251942,9.99641664 C20.1720014,9.67681779 18.6400729,8.89557617 18.1421961,8.89557617 C17.6443193,8.89557617 16.4570747,8.57597732 15.1932337,8.43393339 C13.9293927,8.25637848 13.6996034,8.57597732 13.3932177,8.57597732 C13.086832,8.57597732 12.359166,8.43393339 12.0144821,8.43393339 C11.6697981,8.43393339 11.4400089,8.04331258 11.0953249,7.72371373 C10.750641,7.40411489 11.4400089,6.94247211 11.5932017,6.94247211 C11.7463946,6.94247211 13.1251302,5.45101083 13.2783231,5.3089669 C13.4315159,5.16692297 13.6996034,4.84732412 13.6996034,4.45670331 C13.6996034,4.0660825 13.9293927,3.99506053 14.1974802,3.60443972 C14.3889712,3.32035186 14.886848,2.92973104 15.8060051,2.43257728 C15.6528123,2.1840004 15.4996194,1.97093451 15.3847248,1.82889058 C15.2315319,1.5803137 14.886848,1.11867092 14.5421641,0.65702814 C14.1974802,0.195385363 14.2740766,0.195385363 14.5421641,0.195385363 C14.7336552,0.195385363 15.3847248,0.65702814 16.4953729,1.65133566 C16.5336712,1.54480271 16.5719694,1.40275878 16.5719694,1.26071485 C16.5719694,1.01213797 16.0740926,0.15987438 16.150689,0.0178304484 C16.2272855,-0.124213483 16.8017587,0.621517157 17.1464426,0.870094037 C17.4911265,1.11867092 18.48688,1.82889058 18.48688,1.97093451 C18.48688,2.11297844 18.6017747,2.43257728 18.7549675,2.43257728 C18.9464586,2.43257728 19.023055,2.25502237 19.023055,2.1840004 C19.023055,2.11297844 19.6741246,1.72235763 19.9422121,1.5803137 C20.2102996,1.43826976 20.2102996,1.3672478 20.3634924,1.97093451 C20.5166853,2.6101322 20.2102996,2.8231981 20.3634924,3.07177498 C20.5166853,3.32035186 21.2060531,3.39137382 22.0486138,3.39137382 L29.0571867,3.39137382 C31.086992,3.39137382 31.5848688,3.8530166 32.0061491,4.10159348 C32.4274295,4.35017036 33.6912705,4.10159348 34.4572347,4.10159348 C35.223199,4.10159348 38.7466346,3.6399507 39.9338792,3.39137382 C41.1211238,3.14279694 45.6786111,2.6101322 48.7807663,2.6101322 C51.9212198,2.6101322 52.495693,3.07177498 53.3382536,4.0660825 C54.1808143,5.06039002 54.0276215,10.4935704 54.0276215,11.8074768 C54.0276215,13.1213831 54.4489018,13.5120039 54.4489018,14.1156907 C54.4489018,14.7548883 54.295709,15.9977727 53.759534,16.9920803 C53.223359,17.9863878 53.3382536,18.0574098 53.0701662,18.3059866 C52.8403769,18.5190525 53.0701662,17.3827011 52.9169733,16.6724814 C52.7637805,15.9977727 52.7637805,15.2875531 52.9169733,14.4352895 C53.0701662,13.5830259 53.3382536,13.0503612 53.3382536,12.8017843 L53.3382536,10.1739716 C53.3382536,9.71232877 53.0701662,7.43962587 53.0701662,7.29758194 C53.0701662,7.15553801 52.0744126,10.6356143 52.0744126,10.9552132 C52.0744126,11.239301 50.7339752,13.0503612 50.4658877,13.6540479 C50.1978002,14.2932456 51.1169573,15.2875531 51.3850448,15.6781739 C51.6531323,16.0687947 51.6531323,16.2818606 51.3850448,16.9920803 C51.1169573,17.6667889 50.695677,20.6142005 50.695677,21.3954421 C50.695677,21.6568109 50.7233399,21.8583301 50.7696168,22 Z" id="Combined-Shape"></path>
            <rect id="Rectangle" x="0" y="21" width="66" height="1"></rect>
            <rect id="Rectangle" x="0" y="41" width="66" height="1"></rect>
            <path d="M7.822,38.032 C6.53799358,38.032 5.37700519,37.7530028 4.339,37.195 C3.30099481,36.6369972 2.48500297,35.863005 1.891,34.873 C1.29699703,33.8829951 1,32.7640062 1,31.516 C1,30.2679938 1.29699703,29.149005 1.891,28.159 C2.48500297,27.1689951 3.30099481,26.3950028 4.339,25.837 C5.37700519,25.2789972 6.54399352,25 7.84,25 C8.93200546,25 9.91899559,25.1919981 10.801,25.576 C11.6830044,25.9600019 12.423997,26.5119964 13.024,27.232 L11.152,28.96 C10.2999957,27.9759951 9.2440063,27.484 7.984,27.484 C7.2039961,27.484 6.50800306,27.6549983 5.896,27.997 C5.28399694,28.3390017 4.80700171,28.8159969 4.465,29.428 C4.12299829,30.0400031 3.952,30.7359961 3.952,31.516 C3.952,32.2960039 4.12299829,32.9919969 4.465,33.604 C4.80700171,34.2160031 5.28399694,34.6929983 5.896,35.035 C6.50800306,35.3770017 7.2039961,35.548 7.984,35.548 C9.2440063,35.548 10.2999957,35.050005 11.152,34.054 L13.024,35.782 C12.423997,36.5140037 11.6800044,37.0719981 10.792,37.456 C9.90399556,37.8400019 8.91400546,38.032 7.822,38.032 Z M23.332,35.116 L17.482,35.116 L16.366,37.816 L13.378,37.816 L18.994,25.216 L21.874,25.216 L27.508,37.816 L24.448,37.816 L23.332,35.116 Z M22.414,32.902 L20.416,28.078 L18.418,32.902 L22.414,32.902 Z M40.6780001,25.216 L40.6780001,37.816 L37.7620001,37.816 L37.7620001,32.65 L32.0380001,32.65 L32.0380001,37.816 L29.1220001,37.816 L29.1220001,25.216 L32.0380001,25.216 L32.0380001,30.184 L37.7620001,30.184 L37.7620001,25.216 L40.6780001,25.216 Z M43.9660001,25.216 L46.8820001,25.216 L46.8820001,35.44 L53.2000001,35.44 L53.2000001,37.816 L43.9660001,37.816 L43.9660001,25.216 Z M64.8940002,35.476 L64.8940002,37.816 L55.1380002,37.816 L55.1380002,25.216 L64.6600002,25.216 L64.6600002,27.556 L58.0360002,27.556 L58.0360002,30.292 L63.8860002,30.292 L63.8860002,32.56 L58.0360002,32.56 L58.0360002,35.476 L64.8940002,35.476 Z" id="CAHLE"></path>
        </g>
    </g>
</svg>