<?xml version="1.0" encoding="utf-8"?>
<!-- Generator: Adobe Illustrator 21.0.0, SVG Export Plug-In . SVG Version: 6.00 Build 0)  -->
<svg version="1.1" id="Layer_1" xmlns="http://www.w3.org/2000/svg" xmlns:xlink="http://www.w3.org/1999/xlink" x="0px" y="0px"
	 viewBox="0 0 196.1 196.1" style="enable-background:new 0 0 196.1 196.1;" xml:space="preserve">
<style type="text/css">
	.st0{fill:#293880;}
	.st1{fill-rule:evenodd;clip-rule:evenodd;fill:#293880;}
</style>
<g>
	<path class="st0" d="M98.1,196.1C44,196.1,0,152.1,0,98.1S44,0,98.1,0c54.1,0,98.1,44,98.1,98.1S152.1,196.1,98.1,196.1z M98.1,2
		c-53,0-96,43.1-96,96c0,53,43.1,96,96,96c53,0,96-43.1,96-96C194.1,45.1,151,2,98.1,2z"/>
</g>
<path class="st0" d="M16.5,102.3c1,0,1.8,0.3,2.4,0.9c0.6,0.6,1,1.4,1.1,2.4c0.1,0.7,0,1.4-0.3,2c-0.3,0.6-0.7,1.1-1.3,1.4
	c-0.6,0.4-1.3,0.6-2.2,0.7l-0.8,0.1c-0.9,0.1-1.6,0-2.3-0.2c-0.7-0.2-1.2-0.6-1.6-1.2c-0.4-0.5-0.6-1.2-0.7-1.9
	c-0.1-1,0.1-1.8,0.6-2.5c0.5-0.7,1.2-1.1,2.2-1.3l0.2,1.6c-0.6,0.1-1.1,0.4-1.4,0.7c-0.3,0.3-0.4,0.8-0.3,1.4
	c0.1,0.7,0.4,1.2,0.9,1.5c0.5,0.3,1.3,0.4,2.3,0.3l0.8-0.1c1-0.1,1.7-0.3,2.2-0.7c0.5-0.4,0.7-0.9,0.6-1.6c-0.1-0.6-0.2-1.1-0.6-1.4
	c-0.3-0.3-0.8-0.4-1.4-0.5L16.5,102.3z"/>
<path class="st0" d="M17.4,93.4L17.3,97l2.1,0.8l-0.1,1.6l-9-3.8l0-1.4l9.2-3.1l-0.1,1.6L17.4,93.4z M16,96.5l0.1-2.6L12.3,95
	L16,96.5z"/>
<path class="st0" d="M11.3,84.4l7.3-1.3l-6.4-3.9l0.4-2l8.9,1.7l-0.3,1.5l-2.9-0.6L14.5,79l6.4,3.9l-0.2,1.1l-7.4,1.3l4,0.6l2.9,0.6
	l-0.3,1.5L11,86.4L11.3,84.4z"/>
<path class="st0" d="M22.4,69.6l-1.2,3.3l1.8,1.4l-0.5,1.6L15,69.6l0.5-1.3l9.7-0.2l-0.5,1.6L22.4,69.6z M20.2,72.1l0.9-2.5l-4,0
	L20.2,72.1z"/>
<path class="st0" d="M24.9,60.7l-0.8,1.6l3.1,1.6l-0.7,1.4l-8.1-4.1l1.4-2.9c0.5-0.9,1.1-1.6,1.7-1.8c0.7-0.3,1.4-0.2,2.2,0.2
	c0.5,0.3,0.9,0.6,1.2,1.1c0.2,0.4,0.3,1,0.3,1.5l4.3-0.1l0.1,0l-0.8,1.5L24.9,60.7z M23,61.7l0.7-1.4c0.2-0.5,0.3-0.9,0.2-1.3
	c-0.1-0.4-0.4-0.7-0.8-0.9c-0.4-0.2-0.8-0.3-1.2-0.1c-0.4,0.1-0.7,0.4-0.9,0.9l-0.8,1.5L23,61.7z"/>
<path class="st0" d="M32.4,51.1l-2,2.9l1.3,1.8l-0.9,1.4l-5.6-8L26,48l9.5,2.3l-0.9,1.4L32.4,51.1z M29.6,52.9l1.5-2.2l-3.9-1
	L29.6,52.9z"/>
<path class="st0" d="M46.1,38.9L45,40l-2.8-2.9l-2.9,2.8l2.8,2.9l-1.1,1.1l-6.3-6.6l1.1-1.1l2.6,2.7l2.9-2.8l-2.6-2.7l1.1-1.1
	L46.1,38.9z"/>
<path class="st0" d="M52.5,28.6c0.5,0.7,0.9,1.4,1,2.2c0.1,0.7,0.1,1.4-0.2,2c-0.3,0.6-0.7,1.2-1.3,1.6c-0.6,0.4-1.2,0.7-1.9,0.7
	c-0.7,0-1.3-0.1-2-0.5c-0.6-0.4-1.2-0.9-1.7-1.6l-0.3-0.4c-0.5-0.7-0.9-1.4-1-2.2c-0.1-0.7-0.1-1.4,0.2-2c0.3-0.6,0.7-1.2,1.3-1.6
	c0.6-0.4,1.2-0.7,1.9-0.7c0.7,0,1.3,0.1,2,0.5c0.6,0.4,1.2,0.9,1.8,1.6L52.5,28.6z M50.9,29.2c-0.6-0.8-1.2-1.3-1.8-1.5
	c-0.6-0.2-1.2-0.1-1.8,0.3c-0.6,0.4-0.8,0.9-0.8,1.6c0,0.7,0.3,1.4,0.9,2.2l0.3,0.4c0.6,0.8,1.2,1.3,1.8,1.5
	c0.6,0.2,1.2,0.1,1.8-0.3c0.6-0.4,0.8-0.9,0.8-1.6c0-0.7-0.3-1.4-0.9-2.2L50.9,29.2z"/>
<path class="st0" d="M64.4,26.9L63,27.6l-6.6-3.8l3,5.7l-1.4,0.7l-4.3-8l1.4-0.7l6.6,3.8l-3-5.7l1.4-0.7L64.4,26.9z"/>
<path class="st0" d="M68,25.3l-3.1-8.5l2.5-0.9c0.8-0.3,1.5-0.4,2.2-0.2c0.7,0.1,1.3,0.4,1.9,0.9c0.5,0.5,1,1.2,1.3,1.9l0.2,0.4
	c0.3,0.8,0.4,1.6,0.3,2.3c-0.1,0.7-0.4,1.4-0.9,1.9c-0.5,0.6-1.1,1-1.9,1.2L68,25.3z M66.8,17.4l2.3,6.2l1-0.4
	c0.8-0.3,1.3-0.7,1.5-1.4c0.2-0.6,0.2-1.4-0.1-2.3L71.2,19c-0.3-0.9-0.8-1.6-1.4-1.9c-0.6-0.3-1.3-0.4-2-0.1L66.8,17.4z"/>
<path class="st0" d="M82.4,11.7l1.3,5.9c0.2,0.9,0.1,1.8-0.4,2.4c-0.5,0.7-1.2,1.1-2.2,1.4c-1,0.2-1.9,0.1-2.6-0.3
	c-0.7-0.4-1.2-1.1-1.4-2.1l-1.3-5.9l1.5-0.3l1.3,5.9c0.1,0.6,0.4,1,0.8,1.3c0.4,0.2,0.8,0.3,1.4,0.2c1.2-0.3,1.6-1,1.4-2.3L80.8,12
	L82.4,11.7z"/>
<path class="st0" d="M91,16.2l-1.8,0.2l0.3,3.5L88,20l-0.8-9.1l3.2-0.3c1-0.1,1.9,0.1,2.5,0.5c0.6,0.4,1,1.1,1,2
	c0.1,0.6,0,1.1-0.3,1.6c-0.3,0.4-0.6,0.8-1.1,1.1l2.4,3.6l0,0.1l-1.7,0.1L91,16.2z M89.2,15.1l1.6-0.1c0.5,0,0.9-0.2,1.2-0.5
	c0.3-0.3,0.4-0.7,0.4-1.1c0-0.5-0.2-0.8-0.5-1.1c-0.3-0.2-0.7-0.3-1.3-0.3l-1.7,0.1L89.2,15.1z"/>
<path class="st0" d="M103.5,15.5l-3.7-0.1l-0.1,2.8l4.4,0.1l0,1.3L98,19.4l0.3-9.1l5.9,0.2l0,1.3l-4.3-0.1l-0.1,2.5l3.7,0.1
	L103.5,15.5z"/>
<path class="st0" d="M114.4,21l-1.6-0.3l-3-7l-1,6.4l-1.6-0.3l1.5-9l1.6,0.3l3,7.1l1-6.4l1.5,0.3L114.4,21z M114.9,9.6
	c-0.1,0.5-0.3,0.8-0.6,1.1c-0.3,0.3-0.7,0.4-1.1,0.3c-0.2,0-0.3-0.1-0.4-0.1c-0.1-0.1-0.3-0.2-0.5-0.3c-0.2-0.2-0.3-0.3-0.4-0.3
	c-0.1,0-0.2-0.1-0.3-0.1c-0.2,0-0.3,0-0.4,0.1c-0.1,0.1-0.2,0.2-0.2,0.4l-0.9-0.2c0.1-0.5,0.3-0.8,0.6-1.1c0.3-0.3,0.7-0.4,1.1-0.3
	c0.2,0,0.5,0.2,0.8,0.4c0.3,0.2,0.6,0.4,0.8,0.4c0.2,0,0.3,0,0.4-0.1s0.2-0.2,0.2-0.4L114.9,9.6z"/>
<path class="st0" d="M123.8,21.5l-3.4-1l-1.3,1.8l-1.6-0.5l6-7.7l1.4,0.4l0.6,9.7l-1.6-0.5L123.8,21.5z M121.2,19.3l2.5,0.8l-0.1-4
	L121.2,19.3z"/>
<path class="st0" d="M133.1,27.6l4.4-8l2.4,1.3c0.7,0.4,1.2,0.9,1.6,1.5c0.4,0.6,0.5,1.3,0.5,2c0,0.7-0.2,1.5-0.6,2.2l-0.2,0.4
	c-0.4,0.8-0.9,1.3-1.6,1.7c-0.6,0.4-1.3,0.6-2,0.6c-0.7,0-1.5-0.2-2.2-0.6L133.1,27.6z M138.3,21.5l-3.2,5.7l0.9,0.5
	c0.7,0.4,1.4,0.5,2,0.2c0.6-0.2,1.2-0.8,1.7-1.6l0.2-0.4c0.5-0.9,0.7-1.6,0.5-2.3c-0.1-0.7-0.5-1.2-1.3-1.6L138.3,21.5z"/>
<path class="st0" d="M148.8,32.7l-3-2.2l-1.6,2.3l3.5,2.6l-0.7,1l-4.8-3.5l5.4-7.4l4.8,3.5l-0.8,1l-3.5-2.5l-1.5,2l3,2.2L148.8,32.7
	z"/>
<path class="st0" d="M155.4,42.4l2.8,3l-0.9,0.9l-3.9-4.1l6.6-6.3l1.1,1.1L155.4,42.4z"/>
<path class="st0" d="M164.2,51.7l-2.1-2.8l-2.1,0.7l-1-1.3l9.4-2.6l0.8,1.1l-5.3,8.2l-1-1.3L164.2,51.7z M163.4,48.5l1.6,2.1
	l2.3-3.3L163.4,48.5z"/>
<path class="st0" d="M169.9,63.1l1.8,3.7l-1.1,0.5l-2.4-5.2l8.2-3.9l0.7,1.4L169.9,63.1z"/>
<path class="st0" d="M177.3,74.2l-1.2-3.5l-2.7,0.9l1.4,4.1l-1.2,0.4l-1.9-5.6l8.6-2.9l1.9,5.6l-1.2,0.4l-1.4-4.1l-2.4,0.8l1.2,3.5
	L177.3,74.2z"/>
<path class="st0" d="M178.8,85.5c-1,0.1-1.8-0.1-2.4-0.6c-0.7-0.5-1.1-1.3-1.3-2.3c-0.1-0.7-0.1-1.4,0.1-2c0.2-0.6,0.6-1.1,1.2-1.5
	c0.6-0.4,1.3-0.7,2.1-0.9l0.8-0.2c0.8-0.2,1.6-0.2,2.3,0c0.7,0.2,1.3,0.5,1.7,1c0.5,0.5,0.8,1.1,0.9,1.8c0.2,1,0.1,1.8-0.3,2.5
	c-0.4,0.7-1.1,1.2-2.1,1.5l-0.3-1.5c0.6-0.2,1.1-0.5,1.3-0.8c0.2-0.4,0.3-0.8,0.2-1.4c-0.1-0.7-0.5-1.1-1.1-1.4
	c-0.6-0.3-1.3-0.3-2.3-0.1l-0.8,0.2c-1,0.2-1.7,0.5-2.1,1c-0.4,0.4-0.6,1-0.5,1.7c0.1,0.6,0.4,1,0.7,1.3c0.3,0.3,0.8,0.4,1.5,0.3
	L178.8,85.5z"/>
<path class="st0" d="M176.7,96.7l-0.1-1.6l4-0.3l-0.3-4.1l-4,0.3l-0.1-1.6l9.1-0.6l0.1,1.6l-3.8,0.2l0.3,4.1l3.8-0.2l0.1,1.6
	L176.7,96.7z"/>
<path class="st0" d="M180.4,106.2l0.2-3.7l-2.8-0.2l-0.3,4.4l-1.3-0.1l0.4-5.9l9.1,0.6l-0.4,5.9l-1.3-0.1l0.3-4.3l-2.5-0.2l-0.2,3.7
	L180.4,106.2z"/>
<path class="st1" d="M49.8,79.8c-0.7,1.1-1.3,1.3-1.3,2.4c0,1.1-0.7,2-1.1,2.4c-0.4,0.4-4,4.6-4.4,4.6c-0.4,0-2.2,1.3-1.3,2.2
	c0.9,0.9,1.5,2,2.4,2c0.9,0,2.8,0.4,3.6,0.4c0.8,0,1.4-0.9,4.7-0.4c3.3,0.4,6.4,1.3,7.7,1.3c1.3,0,5.3,2.2,5.7,3.1
	c0.4,0.9,4,10.5,5.1,11.3c1.1,0.9,5.7,6.1,7.5,6.1c1.2,0,2.2,0.1,3.1,0.4c0.6,0.9,0.9,1.5,0.9,2c0,0.7,0.9,2,0.9,3.1
	c0,1.1-0.4,2.6,0,3.1c0.4,0.4,1.5,0.7,1.5,2.8v4.8c-0.7,1.7-1.5,2.9-2.4,3.5c-1.3,0.9-2,0.9-2,1.5c0,0.7,0.2,1.1,1.5,1.1h4.8v-2.6
	l1.8-0.9c-0.6-4.9-0.7-8.1-0.4-9.4c0.4-2,0.7-4.4,1.3-2.6c0.7,1.7,0.4,2.2,1.1,3.1c0.7,0.9,1.3,0.2,1.3,3.3s0,3.5-0.9,5
	c-0.9,1.5-3.1,2.6-1.1,2.6c2,0,3.7,0.4,4.6-1.1c0.9-1.5,1.8-1.3,1.8-2.4s-1.8-5.2-1.8-6.3v-3.7c0-2.2-0.9-4.6-0.9-7.2
	c0-2.6,0-3.1,2.6-3.1s6.2-0.7,7.7,0c1.5,0.7,4.6,2.6,8.4,2.6c3.7,0,9.7-2.8,11-3.3c1.3-0.4,2.9,0.2,3.7,1.3c0.9,1.1,2,0.4,2,2
	c0,1.5,0.9,2.6,0.9,1.5c0-1.1-0.2-0.4,0.7-1.5c0.9-1.1,1.1-1.7,2-0.9c0.9,0.9,1.8,1.1,1.8,2.4c0,1.3,1.1,0.9,1.1,0.4
	c0-0.4,1.3-1.1,1.3-2s1.3-0.9,1.3,0v7.6c0,0.7,0.9,2.4,0.9,3.1c0,0.7-0.4,4.1-1.3,5c-0.9,0.9-4.6,3.3-4.6,4.4c0,1.1,0.2,1.1,2.4,1.1
	c1.5,0,2.5-0.2,3.1-0.7v0.7c-0.6,0.6-0.9,1.1-0.9,1.5c0,0.4,1.3,0.6,4,0.4c0.6-0.7,1.2-1.1,1.8-1.1c0.9,0,0.7-1.1,1.1-2
	c0.3-0.6,0.7-0.9,1.3-0.9v-1.5c-0.4-0.1-0.7-0.9-0.7-2.4c0-2.2,1.1-10.5,1.8-12.4c0.7-2,0.7-2.6,0-3.7c-0.7-1.1-3.1-3.9-2.4-5.7
	c0.7-1.7,4.2-6.8,4.2-7.6c0-0.9,2.6-10.7,2.6-10.3c0,0.4,0.7,6.8,0.7,8.1v7.4c0,0.7-0.7,2.2-1.1,4.6c-0.4,2.4-0.4,4.4,0,6.3
	c0.4,2-0.2,5.2,0.4,4.6c0.7-0.7,0.4-0.9,1.8-3.7s1.8-6.3,1.8-8.1c0-1.7-1.1-2.8-1.1-6.5c0-3.7,0.4-19-1.8-21.8
	c-2.2-2.8-3.7-4.1-11.9-4.1c-8.1,0-20,1.5-23.1,2.2c-3.1,0.7-12.3,2-14.3,2c-2,0-5.3,0.7-6.4,0c-1.1-0.7-2.4-2-7.7-2H70.3
	c-2.2,0-4-0.2-4.4-0.9c-0.4-0.7,0.4-1.3,0-3.1c-0.4-1.7-0.4-1.5-1.1-1.1c-0.7,0.4-2.4,1.5-2.4,1.7c0,0.2-0.2,0.7-0.7,0.7
	c-0.4,0-0.7-0.9-0.7-1.3c0-0.4-2.6-2.4-3.5-3.1c-0.9-0.7-2.4-2.8-2.6-2.4c-0.2,0.4,1.1,2.8,1.1,3.5c0,0.4-0.1,0.8-0.2,1.1
	c-2.9-2.8-4.6-4.1-5.1-4.1c-0.7,0-0.9,0,0,1.3c0.9,1.3,1.8,2.6,2.2,3.3c0.3,0.4,0.7,1,1.1,1.7C51.6,77.9,50.3,79,49.8,79.8z"/>
<path class="st0" d="M71.5,160.4c-0.1,1.5-0.7,2.6-1.6,3.4c-0.9,0.8-2.2,1.2-3.8,1.2c-1.1,0-2.1-0.3-2.9-0.8
	c-0.8-0.5-1.5-1.3-1.9-2.2c-0.5-1-0.7-2.1-0.7-3.3v-1.3c0-1.3,0.2-2.4,0.7-3.4c0.5-1,1.1-1.8,2-2.3c0.9-0.5,1.9-0.8,3-0.8
	c1.5,0,2.7,0.4,3.7,1.2c0.9,0.8,1.5,2,1.6,3.5h-2.4c-0.1-1-0.4-1.7-0.9-2.1c-0.5-0.4-1.1-0.7-2-0.7c-1,0-1.8,0.4-2.4,1.1
	c-0.6,0.8-0.8,1.9-0.9,3.4v1.2c0,1.5,0.3,2.6,0.8,3.4c0.5,0.8,1.3,1.2,2.3,1.2c0.9,0,1.6-0.2,2.1-0.6c0.5-0.4,0.8-1.1,0.9-2.1H71.5z
	"/>
<path class="st0" d="M85.1,161.7h-5.3l-1.1,3.2h-2.5l5.2-13.8h2.2l5.2,13.8h-2.5L85.1,161.7z M80.4,159.8h4l-2-5.7L80.4,159.8z"/>
<path class="st0" d="M105,164.9h-2.4v-6.1h-6.2v6.1h-2.4v-13.8h2.4v5.7h6.2v-5.7h2.4V164.9z"/>
<path class="st0" d="M114,163h6.3v1.9h-8.7v-13.8h2.4V163z"/>
<path class="st0" d="M134,158.8h-5.7v4.2h6.6v1.9h-9v-13.8h9v1.9h-6.6v3.8h5.7V158.8z"/>
<path class="st0" d="M52.3,155.1l1-1.8c-16.1-13.1-26.3-33-26.3-55.2c0-39.2,31.9-71.1,71.1-71.1c39.2,0,71.1,31.9,71.1,71.1
	c0,22.2-10.2,42-26.1,55l1,1.8c16.5-13.4,27.1-33.9,27.1-56.8c0-40.3-32.8-73.1-73.1-73.1c-40.3,0-73.1,32.8-73.1,73.1
	C24.9,121.1,35.6,141.7,52.3,155.1z"/>
</svg>
