<?xml version="1.0" encoding="utf-8"?>
<!-- Generator: Adobe Illustrator 21.0.0, SVG Export Plug-In . SVG Version: 6.00 Build 0)  -->
<svg version="1.1" id="Layer_1" xmlns="http://www.w3.org/2000/svg" xmlns:xlink="http://www.w3.org/1999/xlink" x="0px" y="0px"
	 viewBox="0 0 169.4 169.4" style="enable-background:new 0 0 169.4 169.4;" xml:space="preserve">
<style type="text/css">
	.st0{fill:#293581;}
</style>
<g>
	<path class="st0" d="M114.7,83.5c0.7-0.7,1-3.3,1-3.8s-0.7-1.8-0.7-2.3v-5.8c0-0.7-1-0.7-1,0s-1,1.2-1,1.5s-0.8,0.7-0.8-0.3
		s-0.7-1.2-1.3-1.8c-0.7-0.7-0.8-0.2-1.5,0.7c-0.7,0.8-0.5,0.3-0.5,1.2c0,0.8-0.7,0-0.7-1.2s-0.8-0.7-1.5-1.5s-1.8-1.3-2.8-1
		s-5.5,2.5-8.3,2.5s-5.2-1.5-6.3-2c-1.2-0.5-3.8,0-5.8,0s-2,0.3-2,2.3s0.7,3.8,0.7,5.5v2.8c0,0.8,1.1,3.5,1.3,4.6h29.8
		C113.7,84.2,114.4,83.8,114.7,83.5z"/>
	<path class="st0" d="M74.6,84.1v-3.6c0-1.7-0.8-1.8-1.2-2.2c-0.3-0.3,0-1.5,0-2.3s-0.7-1.8-0.7-2.3c0-0.3-0.2-0.8-0.7-1.5
		c-0.7-0.2-1.4-0.3-2.3-0.3c-1.3,0-4.8-4-5.7-4.6c-0.8-0.7-3.5-7.9-3.8-8.6C60,58,57,56.4,56,56.4s-3.3-0.7-5.8-1s-3,0.3-3.6,0.3
		s-2.1-0.3-2.7-0.3c-0.7,0-1.2-0.8-1.8-1.5c-0.7-0.7,0.7-1.7,1-1.7s3-3.1,3.3-3.5c0.3-0.3,0.8-1,0.8-1.8s0.5-1,1-1.8
		c0.3-0.6,1.4-1.4,3.2-2.5c-0.3-0.6-0.6-1-0.8-1.3c-0.3-0.5-1-1.5-1.7-2.5s-0.5-1,0-1c0.3,0,1.6,1,3.8,3.1c0.1-0.2,0.2-0.5,0.2-0.8
		c0-0.5-1-2.3-0.8-2.6s1.3,1.3,2,1.8s2.7,2,2.7,2.3s0.2,1,0.5,1s0.5-0.3,0.5-0.5s1.3-1,1.8-1.3s0.5-0.5,0.8,0.8s-0.3,1.8,0,2.3
		s1.7,0.7,3.3,0.7h13.8c4,0,5,1,5.8,1.5s3.3,0,4.8,0s8.5-1,10.8-1.5s11.3-1.7,17.5-1.7s7.3,1,9,3.1c1.7,2.2,1.3,13.7,1.3,16.5
		c0,2.8,0.8,3.6,0.8,5c0,1.3-0.3,4-1.3,6.1c-1,2.2-0.8,2.3-1.3,2.8s0-2-0.3-3.5s-0.3-3,0-4.8s0.8-3,0.8-3.5V59c0-1-0.5-5.8-0.5-6.1
		s-2,7.1-2,7.8s-2.7,4.5-3.2,5.8s1.3,3.5,1.8,4.3s0.5,1.3,0,2.8s-1.3,7.8-1.3,9.4c0,0.8,0.1,1.3,0.2,1.6H156
		c0-39.4-32-71.4-71.4-71.4s-71.4,32-71.4,71.4h61.1C74.5,84.5,74.6,84.3,74.6,84.1z"/>
	<path class="st0" d="M79,79.3c-0.5-0.7-0.3-1-0.8-2.3s-0.7,0.5-1,2c-0.2,0.9-0.1,2.8,0.2,5.7h2.4c0.2-0.6,0.2-1.3,0.2-2.9
		C80,79.5,79.5,80,79,79.3z"/>
	<path class="st0" d="M33.7,118c2.7,0,5.2-0.9,6.8-2.4c1.7-1.5,2.7-3.6,2.9-6.3h-4.2c-0.2,1.7-0.9,3-1.6,3.8
		c-0.9,0.9-2.2,1.2-3.8,1.2c-1.9,0-3.3-0.7-4.2-2.2c-1-1.5-1.5-3.5-1.5-6.2v-2.4c0-2.7,0.5-4.7,1.6-6.2c1.1-1.4,2.5-2.2,4.3-2.2
		c1.6,0,2.7,0.4,3.7,1.2c0.9,0.9,1.4,2.2,1.6,3.8h4.2c-0.2-2.7-1.2-4.8-2.9-6.5c-1.7-1.5-3.8-2.4-6.7-2.4c-2.1,0-3.8,0.5-5.5,1.5
		c-1.6,1-2.7,2.5-3.6,4.1c-0.9,1.7-1.2,3.8-1.2,6.3v2.5c0,2.4,0.4,4.2,1.4,6.1c0.9,1.7,2.1,3,3.5,4C30,117.6,32,118,33.7,118z"/>
	<path class="st0" d="M61.9,92.7H58l-9.4,25.2h4.6l2.1-6h9.8l2.1,6h4.2L61.9,92.7z M56.3,108.4L59.9,98l3.6,10.4H56.3z"/>
	<polygon class="st0" points="82,106.4 93,106.4 93,117.7 97.5,117.7 97.5,92.7 93,92.7 93,103.1 82,103.1 82,92.7 77.4,92.7 
		77.4,117.7 82,117.7 	"/>
	<polygon class="st0" points="121.5,114.3 110.1,114.3 110.1,92.7 105.7,92.7 105.7,117.7 121.5,117.7 	"/>
	<polygon class="st0" points="145.6,96 145.6,92.7 129.4,92.7 129.4,117.7 145.7,117.7 145.7,114.3 133.6,114.3 133.6,106.4 
		143.9,106.4 143.9,103.1 133.6,103.1 133.6,96 	"/>
	<path class="st0" d="M84.7,0C38,0,0,38,0,84.7s38,84.7,84.7,84.7s84.7-38,84.7-84.7S131.4,0,84.7,0z M84.7,162.1
		c-42.7,0-77.4-34.7-77.4-77.4S42,7.3,84.7,7.3s77.4,34.7,77.4,77.4S127.4,162.1,84.7,162.1z"/>
	<path class="st0" d="M135.2,134.9c2.7-2.7,5.2-5.7,7.4-8.8H26.5c2.2,3.1,4.7,6.1,7.4,8.8H135.2z"/>
	<path class="st0" d="M46.4,145c11,7,24.1,11,38.1,11s27.1-4,38.1-11H46.4z"/>
</g>
</svg>
