<?xml version="1.0" encoding="UTF-8"?>
<svg width="60px" height="60px" viewBox="0 0 60 60" version="1.1" xmlns="http://www.w3.org/2000/svg" xmlns:xlink="http://www.w3.org/1999/xlink">
    <!-- Generator: Sketch 52.6 (67491) - http://www.bohemiancoding.com/sketch -->
    <title>logo</title>
    <desc>Created with Sketch.</desc>
    <g id="Page-1" stroke="none" stroke-width="1" fill="none" fill-rule="evenodd">
        <g id="home" transform="translate(-654.000000, -11.000000)">
            <g id="logo" transform="translate(655.000000, 12.000000)">
                <path d="M29.3687193,57.4981033 C45.3115585,57.4981033 57.5017934,44.7390678 57.5017934,29 C57.5017934,13.2609322 45.3115585,0.501896722 29.3687193,0.501896722 C13.4258802,0.501896722 0.501655435,13.2609322 0.501655435,29 C0.501655435,44.7390678 13.4258802,57.4981033 29.3687193,57.4981033 Z" id="Oval" stroke="#1B8BF9" stroke-width="2" fill="#FFFFFF"></path>
                <path d="M52.2799988,19.6861093 L42.3891025,19.6861093 C40.3023611,19.6861093 38.6333915,19.4846657 38.2177369,18.8789601 C37.7992595,18.273942 38.6333915,17.6682363 38.2177369,16.0546255 C37.7992595,14.4410147 37.7992595,14.6424582 37.1733077,15.0460328 C36.5480615,15.4496074 34.8790919,16.4582001 34.8790919,16.6596436 C34.8790919,16.8624622 34.670206,17.2653493 34.25314,17.2653493 C33.836074,17.2653493 33.6271882,16.4582001 33.6271882,16.0546255 C33.6271882,15.6517384 31.1240866,13.835309 30.2892489,13.2309784 C29.5299206,12.6795869 28.2526119,10.9594104 27.8715364,10.9594104 C27.5779671,11.4152365 28.8298708,13.6338655 28.8298708,14.2395711 C28.8298708,14.6424582 28.7593012,14.9786558 28.6209849,15.2481638 C25.8391336,12.6933373 24.2393221,11.4152365 23.8229618,11.4152365 C23.19701,11.4152365 22.9881241,11.4152365 23.8229618,12.6252728 C24.6577995,13.835309 25.4919315,15.0460328 25.9089975,15.6517384 C26.1870414,16.0546255 26.5349493,16.5929541 26.9513096,17.2653493 C24.7262519,18.609452 23.4051901,19.6180447 22.9881241,20.2911274 C22.362878,21.2997201 21.7369262,21.5018512 21.7369262,22.5104439 C21.7369262,23.5190366 21.1109743,24.3254982 20.694614,24.7290728 C20.2761367,25.1319599 16.938903,28.9648872 16.5218371,28.9648872 C16.1040654,28.9648872 14.4350957,30.175611 15.2699334,30.9827601 C16.1040654,31.7892218 16.7300172,32.7978145 17.5641492,32.7978145 C18.3989869,32.7978145 20.2542601,33.2013891 20.995946,33.2013891 C21.7369262,33.2013891 22.362878,32.3949274 25.4919315,32.7978145 C28.6209849,33.2013891 31.5418583,34.0078508 32.7930562,34.0078508 C34.0449599,34.0078508 37.7992595,36.0257237 38.2177369,36.8328729 C38.6333915,37.638647 41.9713308,46.5152254 43.0150543,47.3223746 C43.3107072,47.5513232 43.8749236,48.1047582 44.5696646,48.7801771 C40.4185827,52.0525233 35.1575165,54 29.3236712,54 C15.3377938,54 4,42.8071187 4,29 C4,15.1928813 15.3377938,4 29.3236712,4 C39.9749248,4 48.7168579,10.4917818 52.2799988,19.6861093 Z" id="Shape" fill="#1B8BF9"></path>
            </g>
        </g>
    </g>
</svg>