<?xml version="1.0" encoding="UTF-8"?>
<svg width="71px" height="62px" viewBox="0 0 71 62" version="1.1" xmlns="http://www.w3.org/2000/svg" xmlns:xlink="http://www.w3.org/1999/xlink">
    <!-- Generator: Sketch 52.6 (67491) - http://www.bohemiancoding.com/sketch -->
    <title>Group 3@2x</title>
    <desc>Created with Sketch.</desc>
    <g id="Page-1" stroke="none" stroke-width="1" fill="none" fill-rule="evenodd">
        <g id="home" transform="translate(-54.000000, -30.000000)">
            <g id="Group-3" transform="translate(54.000000, 30.000000)">
                <path d="M64.9136496,36 L59.6906863,36 C59.8960896,35.8476772 60.0661712,35.7158166 60.1730993,35.6156491 C60.7363484,35.0880117 60.9866814,33.0947148 60.9866814,32.6843302 C60.9866814,32.2739455 60.4234322,31.2772971 60.4234322,30.8669124 L60.4234322,26.4113076 C60.4234322,25.8836702 59.6098501,25.8836702 59.6098501,26.4113076 C59.6098501,26.938945 58.7962679,27.3493296 58.7962679,27.5838352 C58.7962679,27.8769671 58.1078523,28.1114726 58.1078523,27.3493296 C58.1078523,26.5871867 57.5446031,26.469934 56.9813539,25.9422965 C56.4181048,25.4732855 56.2929383,25.8250438 55.7296891,26.469934 C55.1664399,27.1148241 55.2916064,26.7044395 55.2916064,27.3493296 C55.2916064,27.9942198 54.7283573,27.3493296 54.7283573,26.469934 C54.7283573,25.5319119 54.0399416,25.9422965 53.4766924,25.2974064 C52.9760265,24.6525162 51.9746946,24.3007579 51.1611125,24.5352634 C50.3475304,24.8283953 46.5925359,26.469934 44.276956,26.469934 C41.8987928,26.469934 39.9587123,25.3560328 39.0199637,24.9456481 C38.0812151,24.5352634 35.8282184,24.9456481 34.2010541,24.9456481 C32.5738898,24.9456481 32.5738898,25.23878 32.5738898,26.7630659 C32.5738898,28.2873517 33.137139,29.6943848 33.137139,30.9841652 L33.137139,33.1533412 C33.137139,33.6226623 33.7337609,35.0234836 34.0586173,36 L31.474597,36 C31.5099747,35.6378718 31.5099747,35.1655552 31.5099747,34.4431215 C31.5099747,32.6257038 31.1344753,33.0360884 30.6963926,32.508451 C30.2583099,31.9808136 30.4460596,31.6876817 30.0079769,30.6910333 C29.6324775,29.6357584 29.4447278,31.0427915 29.1943948,32.2153191 C29.0473371,32.8122787 29.0538595,34.0926203 29.2440355,36 L27.1291478,36 L27.1291478,33.3878467 C27.1291478,32.1566927 26.4407322,31.9808136 26.1903992,31.7463081 C25.9400662,31.4531762 26.1903992,30.5737805 26.1903992,29.9288903 C26.1903992,29.2840002 25.62715,28.5218572 25.62715,28.1114726 C25.62715,27.8183407 25.4394003,27.4665824 25.0639009,26.938945 C24.5006517,26.7630659 23.8748193,26.7044395 23.1238204,26.7044395 C21.997322,26.7044395 19.1184929,23.6558678 18.4300773,23.1282303 C17.7416616,22.6592193 15.4886649,17.0310869 15.238332,16.5034495 C14.987999,15.9758121 12.4846694,14.6860317 11.6710872,14.6860317 C10.8575051,14.6860317 8.91742461,14.1583943 6.85217764,13.9238888 C4.78693068,13.6307569 4.41143123,14.1583943 3.9107653,14.1583943 C3.41009937,14.1583943 2.22101779,13.9238888 1.65776861,13.9238888 C1.09451944,13.9238888 0.719019995,13.2789986 0.155770823,12.7513612 C-0.407478349,12.2237238 0.719019995,11.4615809 0.96935296,11.4615809 C1.21968593,11.4615809 3.47268261,8.99927296 3.72301558,8.76476744 C3.97334854,8.53026192 4.41143123,8.00262451 4.41143123,7.35773434 C4.41143123,6.71284417 4.78693068,6.59559141 5.22501337,5.95070124 C5.53792958,5.4816902 6.35151171,4.83680003 7.85350951,4.01603072 C7.60317654,3.60564607 7.35284357,3.25388779 7.16509385,3.01938228 C6.91476089,2.60899762 6.35151171,1.84685469 5.78826254,1.08471176 C5.22501337,0.322568835 5.35017985,0.322568835 5.78826254,0.322568835 C6.10117875,0.322568835 7.16509385,1.08471176 8.98000785,2.72625038 C9.04259109,2.55037124 9.10517433,2.31586573 9.10517433,2.08136021 C9.10517433,1.67097556 8.29159219,0.263942456 8.41675868,0.0294369388 C8.54192516,-0.205068578 9.48067378,1.02608539 10.043923,1.43647004 C10.6071721,1.84685469 12.2343364,3.01938228 12.2343364,3.25388779 C12.2343364,3.48839331 12.4220861,4.01603072 12.6724191,4.01603072 C12.9853353,4.01603072 13.1105018,3.72289883 13.1105018,3.60564607 C13.1105018,3.48839331 14.1744169,2.84350314 14.6124996,2.60899762 C15.0505823,2.37449211 15.0505823,2.25723935 15.3009152,3.25388779 C15.5512482,4.30916262 15.0505823,4.6609209 15.3009152,5.07130555 C15.5512482,5.4816902 16.6777465,5.59894296 18.0545778,5.59894296 L29.507311,5.59894296 C32.8242228,5.59894296 33.6378049,6.36108589 34.3262206,6.77147055 C35.0146362,7.1818552 37.0798832,6.77147055 38.331548,6.77147055 C39.5832129,6.77147055 45.3408711,6.00932762 47.2809515,5.59894296 C49.221032,5.18855831 56.6684377,4.30916262 61.7376803,4.30916262 C66.8695061,4.30916262 67.8082547,5.07130555 69.185086,6.71284417 C70.5619173,8.35438279 70.3115843,17.3242188 70.3115843,19.4933948 C70.3115843,21.6625709 71,22.307461 71,23.3041095 C71,24.3593843 70.749667,26.4113076 69.8735017,28.0528462 C68.9973363,29.6943848 69.185086,29.8116376 68.7470033,30.2220222 C68.3715039,30.5737805 68.7470033,28.6977364 68.4966703,27.5252088 C68.2463374,26.4113076 68.2463374,25.23878 68.4966703,23.8317469 C68.7470033,22.4247138 69.185086,21.5453181 69.185086,21.1349335 L69.185086,16.7965814 C69.185086,16.0344385 68.7470033,12.2823502 68.7470033,12.0478447 C68.7470033,11.8133392 67.119839,17.5587243 67.119839,18.0863617 C67.119839,18.5553728 64.9294256,21.5453181 64.4913429,22.5419666 C64.0532602,23.5972414 65.555258,25.23878 65.9933407,25.8836702 C66.4314234,26.5285603 66.4314234,26.8803186 65.9933407,28.0528462 C65.555258,29.1667474 64.8668424,34.0327369 64.8668424,35.3225172 C64.8668424,35.5848702 64.8835526,35.8106977 64.9136496,36 Z" id="Combined-Shape" fill="#67D54B"></path>
                <path d="M10.6759682,35 C11.2503858,32.0414247 9.04968418,30.6326556 10.5093631,31.8574114 C11.2614475,32.4884541 11.2275059,34.0340299 11.1674722,35 L11.539365,35 C11.6217924,34.7892057 11.7197309,34.5334958 11.8358059,34.2277081 C13.4318286,30.0231539 8.80733548,26.9190929 11.4022265,28.3560604 C13.9971176,29.793028 13.334321,36.3176491 13.334321,33.7374987 C13.334321,31.1573483 15.5636117,29.9843396 14.5658055,31.2502346 C14.0341453,31.9247403 14.2342469,33.9194807 14.5372444,35.0000006 L15.1234619,35 C15.1390377,34.7938655 15.1476644,34.5384219 15.1476644,34.2277081 C15.1476644,30.0231539 18.2770414,28.4736596 17.631452,29.1087375 C17.2076239,29.5256649 16.8872782,31.4894191 16.6704151,35 L70,35 L70,36 L4,36 L4,35 L10.6759682,35 Z" id="Combined-Shape" fill="#67D54B"></path>
                <rect id="Rectangle" fill="#FFFFFF" x="62" y="58" width="6" height="1" rx="0.5"></rect>
                <rect id="Rectangle" fill="#FFFFFF" x="6" y="58" width="6" height="1" rx="0.5"></rect>
                <path d="M19.688,55 L19.688,60.936 L18.496,60.936 L18.496,60.44 C18.1866651,60.8133352 17.7386696,61 17.152,61 C16.7466646,61 16.3800016,60.9093342 16.052,60.728 C15.7239984,60.5466658 15.4666676,60.2880017 15.28,59.952 C15.0933324,59.6159983 15,59.2266689 15,58.784 C15,58.3413311 15.0933324,57.9520017 15.28,57.616 C15.4666676,57.2799983 15.7239984,57.0213342 16.052,56.84 C16.3800016,56.6586658 16.7466646,56.568 17.152,56.568 C17.7013361,56.568 18.1306651,56.7413316 18.44,57.088 L18.44,55 L19.688,55 Z M17.368,59.976 C17.6826682,59.976 17.943999,59.8680011 18.152,59.652 C18.360001,59.4359989 18.464,59.1466685 18.464,58.784 C18.464,58.4213315 18.360001,58.1320011 18.152,57.916 C17.943999,57.6999989 17.6826682,57.592 17.368,57.592 C17.0479984,57.592 16.784001,57.6999989 16.576,57.916 C16.367999,58.1320011 16.264,58.4213315 16.264,58.784 C16.264,59.1466685 16.367999,59.4359989 16.576,59.652 C16.784001,59.8680011 17.0479984,59.976 17.368,59.976 Z M24.816,58.8 C24.816,58.8160001 24.8080001,58.927999 24.792,59.136 L21.536,59.136 C21.594667,59.402668 21.7333322,59.6133326 21.952,59.768 C22.1706678,59.9226674 22.442665,60 22.768,60 C22.9920011,60 23.1906658,59.966667 23.364,59.9 C23.5373342,59.833333 23.6986659,59.7280007 23.848,59.584 L24.512,60.304 C24.1066646,60.7680023 23.5146706,61 22.736,61 C22.2506642,61 21.8213352,60.9053343 21.448,60.716 C21.0746648,60.5266657 20.7866677,60.2640017 20.584,59.928 C20.3813323,59.5919983 20.28,59.2106688 20.28,58.784 C20.28,58.3626646 20.379999,57.9826684 20.58,57.644 C20.780001,57.3053316 21.0546649,57.0413343 21.404,56.852 C21.7533351,56.6626657 22.1439978,56.568 22.576,56.568 C22.9973354,56.568 23.378665,56.6586658 23.72,56.84 C24.061335,57.0213342 24.3293324,57.2813316 24.524,57.62 C24.7186676,57.9586684 24.816,58.3519978 24.816,58.8 Z M22.584,57.512 C22.3013319,57.512 22.064001,57.5919992 21.872,57.752 C21.679999,57.9120008 21.5626669,58.1306653 21.52,58.408 L23.64,58.408 C23.5973331,58.1359986 23.480001,57.9186675 23.288,57.756 C23.095999,57.5933325 22.8613347,57.512 22.584,57.512 Z M26.856,61 C26.4986649,61 26.1493351,60.9560004 25.808,60.868 C25.466665,60.7799996 25.1946677,60.669334 24.992,60.536 L25.408,59.64 C25.600001,59.7626673 25.8319987,59.8626663 26.104,59.94 C26.3760014,60.0173337 26.6426654,60.056 26.904,60.056 C27.4320027,60.056 27.696,59.9253346 27.696,59.664 C27.696,59.5413327 27.6240007,59.4533336 27.48,59.4 C27.3359993,59.3466664 27.1146682,59.3013335 26.816,59.264 C26.4639983,59.2106664 26.1733345,59.1493337 25.944,59.08 C25.7146655,59.0106663 25.5160009,58.8880009 25.348,58.712 C25.1799992,58.5359991 25.096,58.285335 25.096,57.96 C25.096,57.6879986 25.1746659,57.4466677 25.332,57.236 C25.4893341,57.0253323 25.7186652,56.8613339 26.02,56.744 C26.3213349,56.6266661 26.6773313,56.568 27.088,56.568 C27.3920015,56.568 27.6946652,56.601333 27.996,56.668 C28.2973349,56.734667 28.5466657,56.8266661 28.744,56.944 L28.328,57.832 C27.9493315,57.6186656 27.5360023,57.512 27.088,57.512 C26.821332,57.512 26.621334,57.549333 26.488,57.624 C26.354666,57.698667 26.288,57.7946661 26.288,57.912 C26.288,58.045334 26.3599993,58.1386664 26.504,58.192 C26.6480007,58.2453336 26.8773318,58.2959998 27.192,58.344 C27.5440018,58.402667 27.8319989,58.465333 28.056,58.532 C28.2800011,58.598667 28.4746659,58.7199991 28.64,58.896 C28.8053342,59.0720009 28.888,59.3173318 28.888,59.632 C28.888,59.898668 28.8080008,60.135999 28.648,60.344 C28.4879992,60.552001 28.2546682,60.7133328 27.948,60.828 C27.6413318,60.9426672 27.2773355,61 26.856,61 Z M33.8,55 L33.8,60.936 L32.608,60.936 L32.608,60.44 C32.2986651,60.8133352 31.8506696,61 31.264,61 C30.8586647,61 30.4920017,60.9093342 30.164,60.728 C29.8359984,60.5466658 29.5786676,60.2880017 29.392,59.952 C29.2053324,59.6159983 29.112,59.2266689 29.112,58.784 C29.112,58.3413311 29.2053324,57.9520017 29.392,57.616 C29.5786676,57.2799983 29.8359984,57.0213342 30.164,56.84 C30.4920017,56.6586658 30.8586647,56.568 31.264,56.568 C31.8133361,56.568 32.2426651,56.7413316 32.552,57.088 L32.552,55 L33.8,55 Z M31.48,59.976 C31.7946683,59.976 32.055999,59.8680011 32.264,59.652 C32.4720011,59.4359989 32.576,59.1466685 32.576,58.784 C32.576,58.4213315 32.4720011,58.1320011 32.264,57.916 C32.055999,57.6999989 31.7946683,57.592 31.48,57.592 C31.1599984,57.592 30.8960011,57.6999989 30.688,57.916 C30.479999,58.1320011 30.376,58.4213315 30.376,58.784 C30.376,59.1466685 30.479999,59.4359989 30.688,59.652 C30.8960011,59.8680011 31.1599984,59.976 31.48,59.976 Z M38.928,58.8 C38.928,58.8160001 38.9200001,58.927999 38.904,59.136 L35.648,59.136 C35.706667,59.402668 35.8453323,59.6133326 36.064,59.768 C36.2826678,59.9226674 36.5546651,60 36.88,60 C37.1040011,60 37.3026658,59.966667 37.476,59.9 C37.6493342,59.833333 37.8106659,59.7280007 37.96,59.584 L38.624,60.304 C38.2186647,60.7680023 37.6266706,61 36.848,61 C36.3626643,61 35.9333352,60.9053343 35.56,60.716 C35.1866648,60.5266657 34.8986677,60.2640017 34.696,59.928 C34.4933323,59.5919983 34.392,59.2106688 34.392,58.784 C34.392,58.3626646 34.491999,57.9826684 34.692,57.644 C34.892001,57.3053316 35.1666649,57.0413343 35.516,56.852 C35.8653351,56.6626657 36.2559979,56.568 36.688,56.568 C37.1093355,56.568 37.490665,56.6586658 37.832,56.84 C38.1733351,57.0213342 38.4413324,57.2813316 38.636,57.62 C38.8306677,57.9586684 38.928,58.3519978 38.928,58.8 Z M36.696,57.512 C36.4133319,57.512 36.176001,57.5919992 35.984,57.752 C35.7919991,57.9120008 35.6746669,58.1306653 35.632,58.408 L37.752,58.408 C37.7093331,58.1359986 37.592001,57.9186675 37.4,57.756 C37.2079991,57.5933325 36.9733347,57.512 36.696,57.512 Z M43.44,55.336 L43.44,60.936 L42.144,60.936 L42.144,56.376 L41.024,56.376 L41.024,55.336 L43.44,55.336 Z M46.144,55.24 C46.928004,55.24 47.5413312,55.4786643 47.984,55.956 C48.4266689,56.4333357 48.648,57.1199955 48.648,58.016 C48.648,58.6506698 48.5293346,59.1946644 48.292,59.648 C48.0546655,60.1013356 47.7200022,60.4453322 47.288,60.68 C46.8559979,60.9146678 46.3573362,61.032 45.792,61.032 C45.4933319,61.032 45.2080014,60.998667 44.936,60.932 C44.6639987,60.865333 44.432001,60.7706673 44.24,60.648 L44.72,59.696 C44.9920014,59.8826676 45.3413312,59.976 45.768,59.976 C46.2426691,59.976 46.6186653,59.8360014 46.896,59.556 C47.1733348,59.2759986 47.3226666,58.8720026 47.344,58.344 C47.0079984,58.6800017 46.544003,58.848 45.952,58.848 C45.5946649,58.848 45.2693348,58.7760007 44.976,58.632 C44.6826652,58.4879993 44.4506676,58.2840013 44.28,58.02 C44.1093325,57.7559987 44.024,57.4506684 44.024,57.104 C44.024,56.7306648 44.1173324,56.4026681 44.304,56.12 C44.4906676,55.8373319 44.7453318,55.6200008 45.068,55.468 C45.3906683,55.3159992 45.7493314,55.24 46.144,55.24 Z M46.24,57.88 C46.5226681,57.88 46.7533325,57.8013341 46.932,57.644 C47.1106676,57.4866659 47.2,57.2853346 47.2,57.04 C47.2,56.7946654 47.1133342,56.5946674 46.94,56.44 C46.7666658,56.2853326 46.5280016,56.208 46.224,56.208 C45.9466653,56.208 45.7213342,56.2826659 45.548,56.432 C45.3746658,56.5813341 45.288,56.7839987 45.288,57.04 C45.288,57.2960013 45.3746658,57.4999992 45.548,57.652 C45.7213342,57.8040008 45.9519986,57.88 46.24,57.88 Z M51,55.24 C51.784004,55.24 52.3973312,55.4786643 52.84,55.956 C53.2826689,56.4333357 53.504,57.1199955 53.504,58.016 C53.504,58.6506698 53.3853346,59.1946644 53.148,59.648 C52.9106655,60.1013356 52.5760022,60.4453322 52.144,60.68 C51.7119979,60.9146678 51.2133362,61.032 50.648,61.032 C50.3493319,61.032 50.0640014,60.998667 49.792,60.932 C49.5199987,60.865333 49.288001,60.7706673 49.096,60.648 L49.576,59.696 C49.8480014,59.8826676 50.1973312,59.976 50.624,59.976 C51.0986691,59.976 51.4746653,59.8360014 51.752,59.556 C52.0293348,59.2759986 52.1786666,58.8720026 52.2,58.344 C51.8639984,58.6800017 51.400003,58.848 50.808,58.848 C50.4506649,58.848 50.1253348,58.7760007 49.832,58.632 C49.5386652,58.4879993 49.3066676,58.2840013 49.136,58.02 C48.9653325,57.7559987 48.88,57.4506684 48.88,57.104 C48.88,56.7306648 48.9733324,56.4026681 49.16,56.12 C49.3466676,55.8373319 49.6013318,55.6200008 49.924,55.468 C50.2466683,55.3159992 50.6053314,55.24 51,55.24 Z M51.096,57.88 C51.3786681,57.88 51.6093325,57.8013341 51.788,57.644 C51.9666676,57.4866659 52.056,57.2853346 52.056,57.04 C52.056,56.7946654 51.9693342,56.5946674 51.796,56.44 C51.6226658,56.2853326 51.3840016,56.208 51.08,56.208 C50.8026653,56.208 50.5773342,56.2826659 50.404,56.432 C50.2306658,56.5813341 50.144,56.7839987 50.144,57.04 C50.144,57.2960013 50.2306658,57.4999992 50.404,57.652 C50.5773342,57.8040008 50.8079986,57.88 51.096,57.88 Z M55.856,55.24 C56.640004,55.24 57.2533312,55.4786643 57.696,55.956 C58.1386689,56.4333357 58.36,57.1199955 58.36,58.016 C58.36,58.6506698 58.2413346,59.1946644 58.004,59.648 C57.7666655,60.1013356 57.4320022,60.4453322 57,60.68 C56.5679979,60.9146678 56.0693362,61.032 55.504,61.032 C55.2053319,61.032 54.9200014,60.998667 54.648,60.932 C54.3759987,60.865333 54.144001,60.7706673 53.952,60.648 L54.432,59.696 C54.7040014,59.8826676 55.0533312,59.976 55.48,59.976 C55.9546691,59.976 56.3306653,59.8360014 56.608,59.556 C56.8853348,59.2759986 57.0346666,58.8720026 57.056,58.344 C56.7199984,58.6800017 56.256003,58.848 55.664,58.848 C55.3066649,58.848 54.9813348,58.7760007 54.688,58.632 C54.3946652,58.4879993 54.1626676,58.2840013 53.992,58.02 C53.8213325,57.7559987 53.736,57.4506684 53.736,57.104 C53.736,56.7306648 53.8293324,56.4026681 54.016,56.12 C54.2026676,55.8373319 54.4573318,55.6200008 54.78,55.468 C55.1026683,55.3159992 55.4613314,55.24 55.856,55.24 Z M55.952,57.88 C56.2346681,57.88 56.4653325,57.8013341 56.644,57.644 C56.8226676,57.4866659 56.912,57.2853346 56.912,57.04 C56.912,56.7946654 56.8253342,56.5946674 56.652,56.44 C56.4786658,56.2853326 56.2400016,56.208 55.936,56.208 C55.6586653,56.208 55.4333342,56.2826659 55.26,56.432 C55.0866658,56.5813341 55,56.7839987 55,57.04 C55,57.2960013 55.0866658,57.4999992 55.26,57.652 C55.4333342,57.8040008 55.6639986,57.88 55.952,57.88 Z" id="desde-1999" fill="#FFFFFF"></path>
                <path d="M11.822,52.032 C10.5379936,52.032 9.37700519,51.7530028 8.339,51.195 C7.30099481,50.6369972 6.48500297,49.863005 5.891,48.873 C5.29699703,47.8829951 5,46.7640062 5,45.516 C5,44.2679938 5.29699703,43.149005 5.891,42.159 C6.48500297,41.1689951 7.30099481,40.3950028 8.339,39.837 C9.37700519,39.2789972 10.5439935,39 11.84,39 C12.9320055,39 13.9189956,39.1919981 14.801,39.576 C15.6830044,39.9600019 16.423997,40.5119964 17.024,41.232 L15.152,42.96 C14.2999957,41.9759951 13.2440063,41.484 11.984,41.484 C11.2039961,41.484 10.5080031,41.6549983 9.896,41.997 C9.28399694,42.3390017 8.80700171,42.8159969 8.465,43.428 C8.12299829,44.0400031 7.952,44.7359961 7.952,45.516 C7.952,46.2960039 8.12299829,46.9919969 8.465,47.604 C8.80700171,48.2160031 9.28399694,48.6929983 9.896,49.035 C10.5080031,49.3770017 11.2039961,49.548 11.984,49.548 C13.2440063,49.548 14.2999957,49.050005 15.152,48.054 L17.024,49.782 C16.423997,50.5140037 15.6800044,51.0719981 14.792,51.456 C13.9039956,51.8400019 12.9140055,52.032 11.822,52.032 Z M27.332,49.116 L21.482,49.116 L20.366,51.816 L17.378,51.816 L22.994,39.216 L25.874,39.216 L31.508,51.816 L28.448,51.816 L27.332,49.116 Z M26.414,46.902 L24.416,42.078 L22.418,46.902 L26.414,46.902 Z M44.6780001,39.216 L44.6780001,51.816 L41.7620001,51.816 L41.7620001,46.65 L36.0380001,46.65 L36.0380001,51.816 L33.1220001,51.816 L33.1220001,39.216 L36.0380001,39.216 L36.0380001,44.184 L41.7620001,44.184 L41.7620001,39.216 L44.6780001,39.216 Z M47.9660001,39.216 L50.8820001,39.216 L50.8820001,49.44 L57.2000001,49.44 L57.2000001,51.816 L47.9660001,51.816 L47.9660001,39.216 Z M68.8940002,49.476 L68.8940002,51.816 L59.1380002,51.816 L59.1380002,39.216 L68.6600002,39.216 L68.6600002,41.556 L62.0360002,41.556 L62.0360002,44.292 L67.8860002,44.292 L67.8860002,46.56 L62.0360002,46.56 L62.0360002,49.476 L68.8940002,49.476 Z" id="CAHLE" fill="#FFFFFF"></path>
            </g>
        </g>
    </g>
</svg>