<?xml version="1.0" encoding="UTF-8" standalone="no"?>
<svg width="198px" height="80px" viewBox="0 0 198 80" version="1.1" xmlns="http://www.w3.org/2000/svg" xmlns:xlink="http://www.w3.org/1999/xlink">
    <!-- Generator: Sketch 50.2 (55047) - http://www.bohemiancoding.com/sketch -->
    <title>Logo</title>
    <desc>Created with Sketch.</desc>
    <defs>
        <path d="M17.5244206,21.0268724 C17.4178642,21.2313817 18.0586475,22.3575787 18.0586475,22.6650406 C18.0586475,22.8695499 18.0225267,23.040207 17.9517299,23.1770119 C16.5278473,21.8801577 15.7089885,21.2313817 15.4958756,21.2313817 C15.175484,21.2313817 15.0685664,21.2313817 15.4958756,21.8456075 C15.9231849,22.4598334 16.3501329,23.0744082 16.563607,23.3818701 C16.705923,23.5863794 16.8839986,23.8596401 17.0971114,24.2009543 C15.9582221,24.8832335 15.2820404,25.3952048 15.0685664,25.7368679 C14.748536,26.2488391 14.4281443,26.3514427 14.4281443,26.8634139 C14.4281443,27.3753851 14.1077527,27.7847527 13.8946399,27.989611 C13.6804435,28.1941203 11.9722901,30.1397505 11.7588161,30.1397505 C11.5449808,30.1397505 10.6907235,30.7543253 11.1180328,31.1640419 C11.5449808,31.5734094 11.8653725,32.0853806 12.2923205,32.0853806 C12.7196298,32.0853806 13.669246,32.2902389 14.0488758,32.2902389 C14.4281443,32.2902389 14.748536,31.8808714 16.3501329,32.0853806 C17.9517299,32.2902389 19.4467705,32.6996065 20.0871925,32.6996065 C20.7279758,32.6996065 22.6496032,33.7238979 22.8637996,34.1336145 C23.0765512,34.542633 24.7850658,39.0484683 25.3192927,39.4581848 C25.8527971,39.8679014 28.0948161,42.3248048 28.9494346,42.3248048 C29.5186987,42.3248048 30.0171659,42.3932072 30.4444752,42.5296631 C30.728746,42.9397286 30.871062,43.2464925 30.871062,43.4516998 C30.871062,43.7584638 31.2983713,44.3730386 31.2983713,44.8850098 C31.2983713,45.396981 31.0852584,46.1141595 31.2983713,46.3186688 C31.5114841,46.5235271 32.0457109,46.6254327 32.0457109,47.6493751 L32.0457109,49.9024672 C31.6899209,50.7215514 31.2983713,51.2673748 30.871062,51.5409845 C30.2302787,51.9503521 29.9106095,51.9503521 29.9106095,52.257465 C29.9106095,52.5645779 30.0171659,52.7694362 30.657588,52.7694362 L33.0068858,52.7694362 L33.0068858,51.5409845 L33.8615043,51.1312679 C33.5761499,48.8101224 33.5049919,47.3426112 33.6476691,46.7280364 C33.8615043,45.8063486 33.9680607,44.6801515 34.2880912,45.4995846 C34.6084828,46.3186688 34.501204,46.5235271 34.8219568,46.9328946 C35.1419872,47.3426112 35.4627401,47.0351493 35.4627401,48.4688083 C35.4627401,49.9024672 35.4627401,50.1073255 35.0350696,50.823806 C34.6084828,51.5409845 33.5407515,52.0526067 34.501204,52.0526067 C35.4627401,52.0526067 36.3166362,52.257465 36.7439454,51.5409845 C37.1708935,50.823806 37.5982027,50.9264096 37.5982027,50.4144384 C37.5982027,49.9024672 36.7439454,47.9564881 36.7439454,47.4448658 L36.7439454,45.7037449 C36.7439454,44.6801515 36.3166362,43.5536055 36.3166362,42.3248048 C36.3166362,41.0963531 36.3166362,40.8918438 37.5982027,40.8918438 C38.879408,40.8918438 40.5875614,40.5840329 41.3352623,40.8918438 C42.082602,41.1986077 43.5772813,42.1202955 45.3923523,42.1202955 C47.2077845,42.1202955 50.0905868,40.7892402 50.73137,40.5840329 C51.3717921,40.3795236 52.119493,40.6866365 52.546441,41.1986077 C52.9737503,41.7105789 53.5076159,41.403815 53.5076159,42.1202955 C53.5076159,42.837125 53.934564,43.3490962 53.934564,42.837125 C53.934564,42.3248048 53.8276464,42.6326157 54.2545944,42.1202955 C54.6815424,41.6079753 54.78846,41.3012114 55.2161305,41.7105789 C55.6430785,42.1202955 56.0700266,42.2225501 56.0700266,42.837125 C56.0700266,43.4516998 56.6038922,43.2464925 56.6038922,43.0419833 C56.6038922,42.837125 57.2446755,42.5296631 57.2446755,42.1202955 C57.2446755,41.7105789 57.8854588,41.7105789 57.8854588,42.1202955 L57.8854588,45.7037449 C57.8854588,46.0119048 58.3124068,46.83064 58.3124068,47.1377529 C58.3124068,47.4448658 58.0985716,49.0833831 57.6716235,49.4930997 C57.2446755,49.9024672 55.4296045,51.0286643 55.4296045,51.5409845 C55.4296045,52.0526067 55.5361609,52.0526067 56.6038922,52.0526067 C57.3154723,52.0526067 57.8143008,51.9503521 58.0985716,51.7454938 L58.0985716,52.0526067 C57.8143008,52.3258674 57.6716235,52.5645779 57.6716235,52.7694362 C57.6716235,52.9746435 58.3124068,53.0423479 59.5936121,52.9746435 C59.8782442,52.6329803 60.1632374,52.4623233 60.4478694,52.4623233 C60.8751787,52.4623233 60.7682611,51.9503521 60.9817351,51.5409845 C61.1236899,51.2673748 61.3378863,51.1312679 61.6221572,51.1312679 L61.6221572,50.4144384 C61.4090443,50.346385 61.3021267,49.9705207 61.3021267,49.2875434 C61.3021267,48.26395 61.8359924,44.3730386 62.1560228,43.4516998 C62.4764144,42.5296631 62.4764144,42.2225501 62.1560228,41.7105789 C61.8359924,41.1986077 60.6617047,39.8679014 60.9817351,39.0484683 C61.3021267,38.2290351 63.0102801,35.8740374 63.0102801,35.4646698 C63.0102801,35.0553022 64.2918466,30.4468634 64.2918466,30.6517217 C64.2918466,30.8569289 64.6122383,33.8261525 64.6122383,34.4403784 L64.6122383,37.9219222 C64.6122383,38.2290351 64.2918466,38.9458646 64.0780114,40.0720617 C63.8641762,41.1986077 63.8641762,42.1202955 64.0780114,43.0419833 C64.2918466,43.963671 63.971455,45.4995846 64.2918466,45.1921227 C64.6122383,44.8850098 64.5049594,44.7827552 65.1457427,43.4516998 C65.7861648,42.1202955 66,40.4817782 66,39.6626941 C66,38.84361 65.4664956,38.3316388 65.4664956,36.5908669 C65.4664956,34.850095 65.6796084,27.6821491 64.6122383,26.3514427 C63.544507,25.0200384 62.7968061,24.4054636 58.8462725,24.4054636 C54.8953777,24.4054636 49.1294119,25.122293 47.6347325,25.429755 C46.1400532,25.7368679 41.6556539,26.3514427 40.6948402,26.3514427 C39.7333041,26.3514427 38.1320684,26.6582067 37.5982027,26.3514427 C37.064337,26.0439808 36.4235538,25.429755 33.8615043,25.429755 L24.998901,25.429755 C23.9308085,25.429755 23.0765512,25.3275003 22.8637996,25.0200384 C22.6496032,24.7129255 23.0765512,24.4054636 22.8637996,23.5863794 C22.6496032,22.7672953 22.6496032,22.8695499 22.3292115,23.0744082 C22.0091811,23.2792665 21.1549238,23.7912377 21.1549238,23.8934923 C21.1549238,23.996445 21.0480062,24.2009543 20.8345322,24.2009543 C20.6210582,24.2009543 20.5141406,23.7912377 20.5141406,23.5863794 C20.5141406,23.3818701 19.2329352,22.4598334 18.805626,22.1530694 C18.416966,21.8731779 17.7631792,21 17.5681268,21 C17.5486216,21 17.5341733,21.0083758 17.5244206,21.0268724 Z" id="path-1"></path>
    </defs>
    <g id="Welcome" stroke="none" stroke-width="1" fill="none" fill-rule="evenodd">
        <g id="Objetivos-page" transform="translate(-41.000000, -15.000000)">
            <g id="Logo" transform="translate(41.000000, 15.000000)">
                <g id="Group-53" transform="translate(4.000000, 4.000000)"></g>
                <g id="Group-69" transform="translate(54.000000, 59.000000)"></g>
                <path d="M75.9683774,39.9842052 C75.9683774,20.1282191 59.8719851,4.03157715 40.0157494,4.03157715 C20.1595138,4.03157715 4.06287182,20.1282191 4.06287182,39.9842052 C4.06287182,59.8404408 20.1595138,75.9368332 40.0157494,75.9368332 C59.8719851,75.9368332 75.9683774,59.8404408 75.9683774,39.9842052 Z M79.9683774,39.9842052 C79.9683774,62.0495798 62.0811241,79.9368332 40.0157494,79.9368332 C17.9503357,79.9368332 0.0628718221,62.0495408 0.0628718221,39.9842052 C0.0628718221,17.9190372 17.9504177,0.0315771479 40.0157494,0.0315771479 C62.0810422,0.0315771479 79.9683774,17.9189982 79.9683774,39.9842052 Z" id="Stroke-1" fill="#293480" fill-rule="nonzero"></path>
                <path d="M26.879282,63.716178 C26.8098166,64.4340163 26.5376879,64.9936478 26.063233,65.395401 C25.5884409,65.7971541 24.9575204,65.9980306 24.1697972,65.9980306 C23.6191327,65.9980306 23.1345615,65.8710057 22.7150719,65.616956 C22.2959195,65.3632344 21.9721976,65.0018536 21.7445806,64.5337981 C21.5169637,64.0657426 21.3982657,63.5221943 21.3888238,62.9031531 L21.3888238,62.2749215 C21.3888238,61.6407818 21.5041497,61.0818067 21.7351388,60.5983244 C21.9661278,60.1148421 22.2976055,59.7423014 22.7292347,59.4807024 C23.1612011,59.2187751 23.6602724,59.0878115 24.2267857,59.0878115 C24.9892182,59.0878115 25.6029409,59.2890163 26.067954,59.6904411 C26.532967,60.0925225 26.8034096,60.6613445 26.879282,61.3975636 L25.6835342,61.3975636 C25.6265457,60.9140813 25.4815452,60.5651732 25.2492073,60.3511675 C25.0168694,60.1371617 24.6759498,60.0301589 24.2267857,60.0301589 C23.7044469,60.0301589 23.3035039,60.2159368 23.0232821,60.5874928 C22.7433976,60.9587206 22.6004204,61.5035818 22.5940134,62.2214201 L22.5940134,62.8181416 C22.5940134,63.5454986 22.7275487,64.1002067 22.9949565,64.4825943 C23.2623642,64.8646536 23.6542026,65.0556833 24.1697972,65.0556833 C24.64088,65.0556833 24.995288,64.9529474 25.232684,64.7464909 C25.4697429,64.5400344 25.6201387,64.1967062 25.6835342,63.716178 L26.879282,63.716178 Z" id="Fill-57" fill="#293480"></path>
                <path d="M31.3654267,63.3975655 L33.3677815,63.3975655 L32.3669413,60.6076133 L31.3654267,63.3975655 Z M33.7049918,64.3399128 L31.0285536,64.3399128 L30.4684473,65.9058966 L29.2204319,65.9058966 L31.8304397,59.1801425 L32.9078266,59.1801425 L35.5225553,65.9058966 L34.2694818,65.9058966 L33.7049918,64.3399128 Z" id="Fill-59" fill="#293480"></path>
                <polygon id="Fill-61" fill="#293480" points="43.6769074 65.9057653 42.4808225 65.9057653 42.4808225 62.9218294 39.3916389 62.9218294 39.3916389 65.9057653 38.190833 65.9057653 38.190833 59.1803394 39.3916389 59.1803394 39.3916389 61.979482 42.4808225 61.979482 42.4808225 59.1803394 43.6769074 59.1803394"></polygon>
                <polygon id="Fill-63" fill="#293480" points="48.182172 64.972674 51.3189022 64.972674 51.3189022 65.9058309 46.9813661 65.9058309 46.9813661 59.1804051 48.182172 59.1804051"></polygon>
                <polygon id="Fill-65" fill="#293480" points="58.1631249 62.9032844 55.3255002 62.9032844 55.3255002 64.9727724 58.6426379 64.9727724 58.6426379 65.9056011 54.1246943 65.9056011 54.1246943 59.1801753 58.6092541 59.1801753 58.6092541 60.1225227 55.3255002 60.1225227 55.3255002 61.9796461 58.1631249 61.9796461"></polygon>
                <mask id="mask-2" fill="white">
                    <use xlink:href="#path-1"></use>
                </mask>
                <use id="Clip-55" fill="#293480" xlink:href="#path-1"></use>
                <path d="M108.294922,18.3710938 C108.151692,19.8880284 107.591802,21.0712848 106.615234,21.9208984 C105.638667,22.7705121 104.339852,23.1953125 102.71875,23.1953125 C101.585932,23.1953125 100.58822,22.9267605 99.7255859,22.3896484 C98.8629514,21.8525364 98.197268,21.0891977 97.7285156,20.0996094 C97.2597633,19.1100211 97.0156251,17.960944 96.9960938,16.6523438 L96.9960938,15.3242188 C96.9960938,13.9830662 97.2337216,12.8014374 97.7089844,11.7792969 C98.1842472,10.7571563 98.8662065,9.96940381 99.7548828,9.41601562 C100.643559,8.86262744 101.670567,8.5859375 102.835938,8.5859375 C104.404956,8.5859375 105.667964,9.01236553 106.625,9.86523438 C107.582036,10.7181032 108.138671,11.9225183 108.294922,13.4785156 L105.833984,13.4785156 C105.716796,12.4563751 105.418948,11.7190778 104.94043,11.2666016 C104.461912,10.8141253 103.760421,10.5878906 102.835938,10.5878906 C101.761713,10.5878906 100.936526,10.9801393 100.360352,11.7646484 C99.7841768,12.5491576 99.4895834,13.6998622 99.4765625,15.2167969 L99.4765625,16.4765625 C99.4765625,18.0130285 99.7516249,19.1848918 100.301758,19.9921875 C100.851891,20.7994832 101.657547,21.203125 102.71875,21.203125 C103.688807,21.203125 104.417966,20.9850282 104.90625,20.5488281 C105.394534,20.112628 105.703775,19.3867238 105.833984,18.3710938 L108.294922,18.3710938 Z M116.585938,23 C116.48177,22.7981761 116.390625,22.4694033 116.3125,22.0136719 C115.557288,22.8014362 114.632818,23.1953125 113.539062,23.1953125 C112.477859,23.1953125 111.611983,22.8925812 110.941406,22.2871094 C110.27083,21.6816376 109.935547,20.9329472 109.935547,20.0410156 C109.935547,18.9147079 110.353837,18.0504587 111.19043,17.4482422 C112.027022,16.8460256 113.2233,16.5449219 114.779297,16.5449219 L116.234375,16.5449219 L116.234375,15.8515625 C116.234375,15.3046848 116.081382,14.8668636 115.775391,14.5380859 C115.4694,14.2093083 115.003909,14.0449219 114.378906,14.0449219 C113.838539,14.0449219 113.395835,14.1800117 113.050781,14.4501953 C112.705727,14.720379 112.533203,15.0638 112.533203,15.4804688 L110.160156,15.4804688 C110.160156,14.9010388 110.352212,14.359052 110.736328,13.8544922 C111.120445,13.3499324 111.6429,12.9544285 112.303711,12.6679688 C112.964522,12.381509 113.701819,12.2382812 114.515625,12.2382812 C115.75261,12.2382812 116.738929,12.5491505 117.474609,13.1708984 C118.21029,13.7926463 118.587891,14.666661 118.607422,15.7929688 L118.607422,20.5585938 C118.607422,21.5091193 118.740884,22.2675753 119.007812,22.8339844 L119.007812,23 L116.585938,23 Z M113.978516,21.2910156 C114.447268,21.2910156 114.888344,21.1770845 115.301758,20.9492188 C115.715171,20.721353 116.026041,20.4153665 116.234375,20.03125 L116.234375,18.0390625 L114.955078,18.0390625 C114.076167,18.0390625 113.415367,18.1920558 112.972656,18.4980469 C112.529946,18.804038 112.308594,19.2369764 112.308594,19.796875 C112.308594,20.2526064 112.459959,20.6155585 112.762695,20.8857422 C113.065431,21.1559258 113.470701,21.2910156 113.978516,21.2910156 Z M115.296875,8 L118.001953,8 L115.296875,10.9589844 L113.392578,10.9589844 L115.296875,8 Z M123.324219,12.4335938 L123.392578,13.5371094 C124.134769,12.6712196 125.150384,12.2382812 126.439453,12.2382812 C127.852221,12.2382812 128.819008,12.7786404 129.339844,13.859375 C130.108077,12.7786404 131.188795,12.2382812 132.582031,12.2382812 C133.747402,12.2382812 134.614906,12.5605437 135.18457,13.2050781 C135.754235,13.8496126 136.045573,14.8001239 136.058594,16.0566406 L136.058594,23 L133.685547,23 L133.685547,16.125 C133.685547,15.4544237 133.539064,14.9628922 133.246094,14.6503906 C132.953124,14.3378891 132.468102,14.1816406 131.791016,14.1816406 C131.250648,14.1816406 130.809572,14.3264959 130.467773,14.6162109 C130.125975,14.9059259 129.886719,15.2851539 129.75,15.7539062 L129.759766,23 L127.386719,23 L127.386719,16.046875 C127.354167,14.8033792 126.719407,14.1816406 125.482422,14.1816406 C124.531896,14.1816406 123.858075,14.5690065 123.460938,15.34375 L123.460938,23 L121.087891,23 L121.087891,12.4335938 L123.324219,12.4335938 Z M144.808594,23 C144.704427,22.7981761 144.613282,22.4694033 144.535156,22.0136719 C143.779944,22.8014362 142.855474,23.1953125 141.761719,23.1953125 C140.700516,23.1953125 139.834639,22.8925812 139.164062,22.2871094 C138.493486,21.6816376 138.158203,20.9329472 138.158203,20.0410156 C138.158203,18.9147079 138.576493,18.0504587 139.413086,17.4482422 C140.249679,16.8460256 141.445956,16.5449219 143.001953,16.5449219 L144.457031,16.5449219 L144.457031,15.8515625 C144.457031,15.3046848 144.304038,14.8668636 143.998047,14.5380859 C143.692056,14.2093083 143.226566,14.0449219 142.601562,14.0449219 C142.061195,14.0449219 141.618491,14.1800117 141.273438,14.4501953 C140.928384,14.720379 140.755859,15.0638 140.755859,15.4804688 L138.382812,15.4804688 C138.382812,14.9010388 138.574868,14.359052 138.958984,13.8544922 C139.343101,13.3499324 139.865557,12.9544285 140.526367,12.6679688 C141.187178,12.381509 141.924475,12.2382812 142.738281,12.2382812 C143.975267,12.2382812 144.961585,12.5491505 145.697266,13.1708984 C146.432946,13.7926463 146.810547,14.666661 146.830078,15.7929688 L146.830078,20.5585938 C146.830078,21.5091193 146.96354,22.2675753 147.230469,22.8339844 L147.230469,23 L144.808594,23 Z M142.201172,21.2910156 C142.669924,21.2910156 143.111001,21.1770845 143.524414,20.9492188 C143.937828,20.721353 144.248697,20.4153665 144.457031,20.03125 L144.457031,18.0390625 L143.177734,18.0390625 C142.298824,18.0390625 141.638023,18.1920558 141.195312,18.4980469 C140.752602,18.804038 140.53125,19.2369764 140.53125,19.796875 C140.53125,20.2526064 140.682616,20.6155585 140.985352,20.8857422 C141.288087,21.1559258 141.693357,21.2910156 142.201172,21.2910156 Z M154.847656,14.6015625 C154.535155,14.5494789 154.212892,14.5234375 153.880859,14.5234375 C152.793614,14.5234375 152.0612,14.9401 151.683594,15.7734375 L151.683594,23 L149.310547,23 L149.310547,12.4335938 L151.576172,12.4335938 L151.634766,13.6152344 C152.207685,12.697261 153.001948,12.2382812 154.017578,12.2382812 C154.356121,12.2382812 154.636067,12.2838537 154.857422,12.375 L154.847656,14.6015625 Z M162.660156,23 C162.555989,22.7981761 162.464844,22.4694033 162.386719,22.0136719 C161.631507,22.8014362 160.707037,23.1953125 159.613281,23.1953125 C158.552078,23.1953125 157.686201,22.8925812 157.015625,22.2871094 C156.345049,21.6816376 156.009766,20.9329472 156.009766,20.0410156 C156.009766,18.9147079 156.428056,18.0504587 157.264648,17.4482422 C158.101241,16.8460256 159.297518,16.5449219 160.853516,16.5449219 L162.308594,16.5449219 L162.308594,15.8515625 C162.308594,15.3046848 162.1556,14.8668636 161.849609,14.5380859 C161.543618,14.2093083 161.078128,14.0449219 160.453125,14.0449219 C159.912758,14.0449219 159.470054,14.1800117 159.125,14.4501953 C158.779946,14.720379 158.607422,15.0638 158.607422,15.4804688 L156.234375,15.4804688 C156.234375,14.9010388 156.42643,14.359052 156.810547,13.8544922 C157.194663,13.3499324 157.717119,12.9544285 158.37793,12.6679688 C159.03874,12.381509 159.776038,12.2382812 160.589844,12.2382812 C161.826829,12.2382812 162.813147,12.5491505 163.548828,13.1708984 C164.284509,13.7926463 164.662109,14.666661 164.681641,15.7929688 L164.681641,20.5585938 C164.681641,21.5091193 164.815103,22.2675753 165.082031,22.8339844 L165.082031,23 L162.660156,23 Z M160.052734,21.2910156 C160.521487,21.2910156 160.962563,21.1770845 161.375977,20.9492188 C161.78939,20.721353 162.100259,20.4153665 162.308594,20.03125 L162.308594,18.0390625 L161.029297,18.0390625 C160.150386,18.0390625 159.489586,18.1920558 159.046875,18.4980469 C158.604164,18.804038 158.382812,19.2369764 158.382812,19.796875 C158.382812,20.2526064 158.534178,20.6155585 158.836914,20.8857422 C159.13965,21.1559258 159.544919,21.2910156 160.052734,21.2910156 Z M108.734375,47 L106.273438,47 L106.273438,40.6816406 L99.9160156,40.6816406 L99.9160156,47 L97.4453125,47 L97.4453125,32.78125 L99.9160156,32.78125 L99.9160156,38.6992188 L106.273438,38.6992188 L106.273438,32.78125 L108.734375,32.78125 L108.734375,47 Z M110.980469,41.6191406 C110.980469,40.5839792 111.185545,39.6513713 111.595703,38.8212891 C112.005861,37.9912068 112.582028,37.3531923 113.324219,36.9072266 C114.06641,36.4612608 114.919266,36.2382812 115.882812,36.2382812 C117.308601,36.2382812 118.465816,36.697261 119.354492,37.6152344 C120.243169,38.5332077 120.723307,39.7506435 120.794922,41.2675781 L120.804688,41.8242188 C120.804688,42.8658906 120.604494,43.7968709 120.204102,44.6171875 C119.803709,45.4375041 119.230798,46.0722634 118.485352,46.5214844 C117.739905,46.9707054 116.878911,47.1953125 115.902344,47.1953125 C114.411451,47.1953125 113.218429,46.6988982 112.323242,45.7060547 C111.428055,44.7132112 110.980469,43.3899822 110.980469,41.7363281 L110.980469,41.6191406 Z M113.353516,41.8242188 C113.353516,42.9114638 113.578123,43.7626922 114.027344,44.3779297 C114.476565,44.9931671 115.101558,45.3007812 115.902344,45.3007812 C116.703129,45.3007812 117.326495,44.9882844 117.772461,44.3632812 C118.218427,43.7382781 118.441406,42.8235737 118.441406,41.6191406 C118.441406,40.551427 118.211916,39.7050812 117.75293,39.0800781 C117.293943,38.455075 116.670577,38.1425781 115.882812,38.1425781 C115.108069,38.1425781 114.492841,38.4501922 114.037109,39.0654297 C113.581378,39.6806671 113.353516,40.6002543 113.353516,41.8242188 Z M125.013672,36.4335938 L125.082031,37.6542969 C125.863285,36.7102817 126.888666,36.2382812 128.158203,36.2382812 C130.358735,36.2382812 131.478515,37.4980343 131.517578,40.0175781 L131.517578,47 L129.144531,47 L129.144531,40.1542969 C129.144531,39.4837206 128.999676,38.9873063 128.709961,38.6650391 C128.420246,38.3427718 127.946618,38.1816406 127.289062,38.1816406 C126.332026,38.1816406 125.619143,38.614579 125.150391,39.4804688 L125.150391,47 L122.777344,47 L122.777344,36.4335938 L125.013672,36.4335938 Z M133.490234,41.6386719 C133.490234,40.0110596 133.867835,38.7041065 134.623047,37.7177734 C135.378259,36.7314404 136.390619,36.2382812 137.660156,36.2382812 C138.779954,36.2382812 139.684892,36.6289023 140.375,37.4101562 L140.375,32 L142.748047,32 L142.748047,47 L140.599609,47 L140.482422,45.90625 C139.772783,46.7656293 138.825527,47.1953125 137.640625,47.1953125 C136.40364,47.1953125 135.402673,46.6972706 134.637695,45.7011719 C133.872718,44.7050731 133.490234,43.35092 133.490234,41.6386719 Z M135.863281,41.84375 C135.863281,42.9179741 136.069985,43.7561819 136.483398,44.3583984 C136.896812,44.960615 137.484371,45.2617188 138.246094,45.2617188 C139.216151,45.2617188 139.925779,44.8287804 140.375,43.9628906 L140.375,39.4511719 C139.9388,38.6048135 139.235682,38.1816406 138.265625,38.1816406 C137.497392,38.1816406 136.90495,38.4859996 136.488281,39.0947266 C136.071613,39.7034536 135.863281,40.6197855 135.863281,41.84375 Z M151.625,45.9648438 C150.928382,46.7851604 149.938808,47.1953125 148.65625,47.1953125 C147.510411,47.1953125 146.642907,46.8600294 146.053711,46.1894531 C145.464515,45.5188769 145.169922,44.5488345 145.169922,43.2792969 L145.169922,36.4335938 L147.542969,36.4335938 L147.542969,43.25 C147.542969,44.5911525 148.099604,45.2617188 149.212891,45.2617188 C150.36524,45.2617188 151.143227,44.8483114 151.546875,44.0214844 L151.546875,36.4335938 L153.919922,36.4335938 L153.919922,47 L151.683594,47 L151.625,45.9648438 Z M161.869141,38.6015625 C161.556639,38.5494789 161.234377,38.5234375 160.902344,38.5234375 C159.815099,38.5234375 159.082684,38.9401 158.705078,39.7734375 L158.705078,47 L156.332031,47 L156.332031,36.4335938 L158.597656,36.4335938 L158.65625,37.6152344 C159.22917,36.697261 160.023432,36.2382812 161.039062,36.2382812 C161.377606,36.2382812 161.657551,36.2838537 161.878906,36.375 L161.869141,38.6015625 Z M168.021484,47.1953125 C166.517571,47.1953125 165.298507,46.7216844 164.364258,45.7744141 C163.430008,44.8271437 162.962891,43.5657631 162.962891,41.9902344 L162.962891,41.6972656 C162.962891,40.6425729 163.166339,39.7001995 163.573242,38.8701172 C163.980145,38.0400349 164.551429,37.3938825 165.287109,36.9316406 C166.02279,36.4693987 166.843094,36.2382812 167.748047,36.2382812 C169.186856,36.2382812 170.298499,36.697261 171.083008,37.6152344 C171.867517,38.5332077 172.259766,39.8320229 172.259766,41.5117188 L172.259766,42.46875 L165.355469,42.46875 C165.427084,43.3411502 165.718422,44.0312475 166.229492,44.5390625 C166.740562,45.0468775 167.38346,45.3007812 168.158203,45.3007812 C169.245448,45.3007812 170.130856,44.8613325 170.814453,43.9824219 L172.09375,45.203125 C171.670571,45.8346386 171.105798,46.3245425 170.399414,46.6728516 C169.69303,47.0211606 168.900395,47.1953125 168.021484,47.1953125 Z M167.738281,38.1425781 C167.087236,38.1425781 166.561525,38.3704404 166.161133,38.8261719 C165.76074,39.2819033 165.505209,39.9166626 165.394531,40.7304688 L169.916016,40.7304688 L169.916016,40.5546875 C169.863932,39.7604127 169.652346,39.1598328 169.28125,38.7529297 C168.910154,38.3460266 168.395837,38.1425781 167.738281,38.1425781 Z M176.302734,36.4335938 L176.371094,37.6542969 C177.152348,36.7102817 178.177728,36.2382812 179.447266,36.2382812 C181.647797,36.2382812 182.767578,37.4980343 182.806641,40.0175781 L182.806641,47 L180.433594,47 L180.433594,40.1542969 C180.433594,39.4837206 180.288738,38.9873063 179.999023,38.6650391 C179.709308,38.3427718 179.23568,38.1816406 178.578125,38.1816406 C177.621089,38.1816406 176.908205,38.614579 176.439453,39.4804688 L176.439453,47 L174.066406,47 L174.066406,36.4335938 L176.302734,36.4335938 Z M182.064453,32.2148438 C182.064453,32.9309932 181.857749,33.5266903 181.444336,34.0019531 C181.030922,34.4772159 180.511722,34.7148438 179.886719,34.7148438 C179.632811,34.7148438 179.413087,34.6871748 179.227539,34.6318359 C179.041991,34.5764971 178.778322,34.4511729 178.436523,34.2558594 C178.094725,34.0605459 177.853842,33.9433596 177.713867,33.9042969 C177.573893,33.8652342 177.419272,33.8457031 177.25,33.8457031 C177.002603,33.8457031 176.792644,33.9384756 176.620117,34.1240234 C176.44759,34.3095712 176.361328,34.5520818 176.361328,34.8515625 L174.90625,34.7734375 C174.90625,34.0572881 175.112954,33.4550806 175.526367,32.9667969 C175.939781,32.4785132 176.455726,32.234375 177.074219,32.234375 C177.445314,32.234375 177.892901,32.3808579 178.416992,32.6738281 C178.941083,32.9667983 179.372394,33.1132812 179.710938,33.1132812 C179.958335,33.1132812 180.169921,33.0205087 180.345703,32.8349609 C180.521485,32.6494131 180.609375,32.4036474 180.609375,32.0976562 L182.064453,32.2148438 Z M191.537109,47 C191.432942,46.7981761 191.341797,46.4694033 191.263672,46.0136719 C190.50846,46.8014362 189.58399,47.1953125 188.490234,47.1953125 C187.429031,47.1953125 186.563154,46.8925812 185.892578,46.2871094 C185.222002,45.6816376 184.886719,44.9329472 184.886719,44.0410156 C184.886719,42.9147079 185.305009,42.0504587 186.141602,41.4482422 C186.978194,40.8460256 188.174471,40.5449219 189.730469,40.5449219 L191.185547,40.5449219 L191.185547,39.8515625 C191.185547,39.3046848 191.032554,38.8668636 190.726562,38.5380859 C190.420571,38.2093083 189.955081,38.0449219 189.330078,38.0449219 C188.789711,38.0449219 188.347007,38.1800117 188.001953,38.4501953 C187.656899,38.720379 187.484375,39.0638 187.484375,39.4804688 L185.111328,39.4804688 C185.111328,38.9010388 185.303383,38.359052 185.6875,37.8544922 C186.071617,37.3499324 186.594072,36.9544285 187.254883,36.6679688 C187.915693,36.381509 188.652991,36.2382812 189.466797,36.2382812 C190.703782,36.2382812 191.6901,36.5491505 192.425781,37.1708984 C193.161462,37.7926463 193.539062,38.666661 193.558594,39.7929688 L193.558594,44.5585938 C193.558594,45.5091193 193.692056,46.2675753 193.958984,46.8339844 L193.958984,47 L191.537109,47 Z M188.929688,45.2910156 C189.39844,45.2910156 189.839516,45.1770845 190.25293,44.9492188 C190.666343,44.721353 190.977213,44.4153665 191.185547,44.03125 L191.185547,42.0390625 L189.90625,42.0390625 C189.027339,42.0390625 188.366539,42.1920558 187.923828,42.4980469 C187.481118,42.804038 187.259766,43.2369764 187.259766,43.796875 C187.259766,44.2526064 187.411131,44.6155585 187.713867,44.8857422 C188.016603,45.1559258 188.421872,45.2910156 188.929688,45.2910156 Z M96.7714844,65.6386719 C96.7714844,64.0110596 97.1490848,62.7041065 97.9042969,61.7177734 C98.659509,60.7314404 99.6718687,60.2382812 100.941406,60.2382812 C102.061204,60.2382812 102.966142,60.6289023 103.65625,61.4101562 L103.65625,56 L106.029297,56 L106.029297,71 L103.880859,71 L103.763672,69.90625 C103.054033,70.7656293 102.106777,71.1953125 100.921875,71.1953125 C99.6848896,71.1953125 98.6839231,70.6972706 97.9189453,69.7011719 C97.1539675,68.7050731 96.7714844,67.35092 96.7714844,65.6386719 Z M99.1445312,65.84375 C99.1445312,66.9179741 99.3512349,67.7561819 99.7646484,68.3583984 C100.178062,68.960615 100.765621,69.2617188 101.527344,69.2617188 C102.497401,69.2617188 103.207029,68.8287804 103.65625,67.9628906 L103.65625,63.4511719 C103.22005,62.6048135 102.516932,62.1816406 101.546875,62.1816406 C100.778642,62.1816406 100.1862,62.4859996 99.7695312,63.0947266 C99.3528625,63.7034536 99.1445312,64.6197855 99.1445312,65.84375 Z M113.158203,71.1953125 C111.654289,71.1953125 110.435226,70.7216844 109.500977,69.7744141 C108.566727,68.8271437 108.099609,67.5657631 108.099609,65.9902344 L108.099609,65.6972656 C108.099609,64.6425729 108.303058,63.7001995 108.709961,62.8701172 C109.116864,62.0400349 109.688147,61.3938825 110.423828,60.9316406 C111.159509,60.4693987 111.979813,60.2382812 112.884766,60.2382812 C114.323575,60.2382812 115.435217,60.697261 116.219727,61.6152344 C117.004236,62.5332077 117.396484,63.8320229 117.396484,65.5117188 L117.396484,66.46875 L110.492188,66.46875 C110.563802,67.3411502 110.855141,68.0312475 111.366211,68.5390625 C111.877281,69.0468775 112.520178,69.3007812 113.294922,69.3007812 C114.382167,69.3007812 115.267575,68.8613325 115.951172,67.9824219 L117.230469,69.203125 C116.80729,69.8346386 116.242517,70.3245425 115.536133,70.6728516 C114.829749,71.0211606 114.037114,71.1953125 113.158203,71.1953125 Z M112.875,62.1425781 C112.223955,62.1425781 111.698244,62.3704404 111.297852,62.8261719 C110.897459,63.2819033 110.641928,63.9166626 110.53125,64.7304688 L115.052734,64.7304688 L115.052734,64.5546875 C115.000651,63.7604127 114.789064,63.1598328 114.417969,62.7529297 C114.046873,62.3460266 113.532555,62.1425781 112.875,62.1425781 Z M126.742188,71 L124.369141,71 L124.369141,56 L126.742188,56 L126.742188,71 Z M135.638672,71 C135.534505,70.7981761 135.44336,70.4694033 135.365234,70.0136719 C134.610022,70.8014362 133.685552,71.1953125 132.591797,71.1953125 C131.530594,71.1953125 130.664717,70.8925812 129.994141,70.2871094 C129.323564,69.6816376 128.988281,68.9329472 128.988281,68.0410156 C128.988281,66.9147079 129.406571,66.0504587 130.243164,65.4482422 C131.079757,64.8460256 132.276034,64.5449219 133.832031,64.5449219 L135.287109,64.5449219 L135.287109,63.8515625 C135.287109,63.3046848 135.134116,62.8668636 134.828125,62.5380859 C134.522134,62.2093083 134.056644,62.0449219 133.431641,62.0449219 C132.891273,62.0449219 132.448569,62.1800117 132.103516,62.4501953 C131.758462,62.720379 131.585938,63.0638 131.585938,63.4804688 L129.212891,63.4804688 C129.212891,62.9010388 129.404946,62.359052 129.789062,61.8544922 C130.173179,61.3499324 130.695635,60.9544285 131.356445,60.6679688 C132.017256,60.381509 132.754553,60.2382812 133.568359,60.2382812 C134.805345,60.2382812 135.791663,60.5491505 136.527344,61.1708984 C137.263025,61.7926463 137.640625,62.666661 137.660156,63.7929688 L137.660156,68.5585938 C137.660156,69.5091193 137.793618,70.2675753 138.060547,70.8339844 L138.060547,71 L135.638672,71 Z M133.03125,69.2910156 C133.500002,69.2910156 133.941079,69.1770845 134.354492,68.9492188 C134.767906,68.721353 135.078775,68.4153665 135.287109,68.03125 L135.287109,66.0390625 L134.007812,66.0390625 C133.128902,66.0390625 132.468101,66.1920558 132.025391,66.4980469 C131.58268,66.804038 131.361328,67.2369764 131.361328,67.796875 C131.361328,68.2526064 131.512694,68.6155585 131.81543,68.8857422 C132.118166,69.1559258 132.523435,69.2910156 133.03125,69.2910156 Z M147.826172,69.0273438 L154.28125,69.0273438 L154.28125,71 L145.355469,71 L145.355469,56.78125 L147.826172,56.78125 L147.826172,69.0273438 Z M160.599609,71.1953125 C159.095696,71.1953125 157.876632,70.7216844 156.942383,69.7744141 C156.008133,68.8271437 155.541016,67.5657631 155.541016,65.9902344 L155.541016,65.6972656 C155.541016,64.6425729 155.744464,63.7001995 156.151367,62.8701172 C156.55827,62.0400349 157.129554,61.3938825 157.865234,60.9316406 C158.600915,60.4693987 159.421219,60.2382812 160.326172,60.2382812 C161.764981,60.2382812 162.876624,60.697261 163.661133,61.6152344 C164.445642,62.5332077 164.837891,63.8320229 164.837891,65.5117188 L164.837891,66.46875 L157.933594,66.46875 C158.005209,67.3411502 158.296547,68.0312475 158.807617,68.5390625 C159.318687,69.0468775 159.961585,69.3007812 160.736328,69.3007812 C161.823573,69.3007812 162.708981,68.8613325 163.392578,67.9824219 L164.671875,69.203125 C164.248696,69.8346386 163.683923,70.3245425 162.977539,70.6728516 C162.271155,71.0211606 161.47852,71.1953125 160.599609,71.1953125 Z M160.316406,62.1425781 C159.665361,62.1425781 159.13965,62.3704404 158.739258,62.8261719 C158.338865,63.2819033 158.083334,63.9166626 157.972656,64.7304688 L162.494141,64.7304688 L162.494141,64.5546875 C162.442057,63.7604127 162.230471,63.1598328 161.859375,62.7529297 C161.488279,62.3460266 160.973962,62.1425781 160.316406,62.1425781 Z M171.019531,69.3007812 C171.611982,69.3007812 172.103514,69.1282569 172.494141,68.7832031 C172.884768,68.4381493 173.093099,68.0117213 173.119141,67.5039062 L175.355469,67.5039062 C175.329427,68.1614616 175.124351,68.7750623 174.740234,69.3447266 C174.356118,69.9143909 173.83529,70.3652327 173.177734,70.6972656 C172.520179,71.0292985 171.810551,71.1953125 171.048828,71.1953125 C169.570956,71.1953125 168.399093,70.7168017 167.533203,69.7597656 C166.667313,68.8027296 166.234375,67.4811282 166.234375,65.7949219 L166.234375,65.5507812 C166.234375,63.9427003 166.664058,62.6552783 167.523438,61.6884766 C168.382817,60.7216749 169.55468,60.2382812 171.039062,60.2382812 C172.295579,60.2382812 173.319332,60.6044885 174.110352,61.3369141 C174.901371,62.0693396 175.316406,63.031244 175.355469,64.2226562 L173.119141,64.2226562 C173.093099,63.6171845 172.886395,63.1191426 172.499023,62.7285156 C172.111652,62.3378887 171.618493,62.1425781 171.019531,62.1425781 C170.251298,62.1425781 169.658856,62.4208957 169.242188,62.9775391 C168.825519,63.5341825 168.613932,64.3789006 168.607422,65.5117188 L168.607422,65.8925781 C168.607422,67.0384172 168.814126,67.8929008 169.227539,68.4560547 C169.640953,69.0192085 170.238277,69.3007812 171.019531,69.3007812 Z M179.486328,61.5859375 C180.261072,60.6874955 181.240879,60.2382812 182.425781,60.2382812 C184.678397,60.2382812 185.820963,61.5240757 185.853516,64.0957031 L185.853516,71 L183.480469,71 L183.480469,64.1835938 C183.480469,63.4544234 183.322593,62.9384781 183.006836,62.6357422 C182.691079,62.3330063 182.227217,62.1816406 181.615234,62.1816406 C180.664709,62.1816406 179.95508,62.6048135 179.486328,63.4511719 L179.486328,71 L177.113281,71 L177.113281,56 L179.486328,56 L179.486328,61.5859375 Z M192.904297,71.1953125 C191.400383,71.1953125 190.18132,70.7216844 189.24707,69.7744141 C188.312821,68.8271437 187.845703,67.5657631 187.845703,65.9902344 L187.845703,65.6972656 C187.845703,64.6425729 188.049152,63.7001995 188.456055,62.8701172 C188.862958,62.0400349 189.434241,61.3938825 190.169922,60.9316406 C190.905603,60.4693987 191.725907,60.2382812 192.630859,60.2382812 C194.069669,60.2382812 195.181311,60.697261 195.96582,61.6152344 C196.750329,62.5332077 197.142578,63.8320229 197.142578,65.5117188 L197.142578,66.46875 L190.238281,66.46875 C190.309896,67.3411502 190.601234,68.0312475 191.112305,68.5390625 C191.623375,69.0468775 192.266272,69.3007812 193.041016,69.3007812 C194.128261,69.3007812 195.013668,68.8613325 195.697266,67.9824219 L196.976562,69.203125 C196.553383,69.8346386 195.98861,70.3245425 195.282227,70.6728516 C194.575843,71.0211606 193.783208,71.1953125 192.904297,71.1953125 Z M192.621094,62.1425781 C191.970049,62.1425781 191.444338,62.3704404 191.043945,62.8261719 C190.643553,63.2819033 190.388021,63.9166626 190.277344,64.7304688 L194.798828,64.7304688 L194.798828,64.5546875 C194.746745,63.7604127 194.535158,63.1598328 194.164062,62.7529297 C193.792967,62.3460266 193.278649,62.1425781 192.621094,62.1425781 Z" id="Cámara-Hondureña-de" fill="#293480"></path>
            </g>
        </g>
    </g>
</svg>