<svg id="logo" xmlns="http://www.w3.org/2000/svg" viewBox="0 0 637.39 222.01"><defs><style>.cls-1{fill:#1f2b7b;}.cls-2{fill:#67d54b;}</style></defs><title>Cámara hondureña de la lehce</title><g id="C"><path class="cls-1" d="M115.06,201.43A99,99,0,0,1,85.18,197c2-6.59,3.81-13.08,5.59-19,2.55-8.49,5.16-16.75,7.84-23.23a25.51,25.51,0,0,0,9.71-9.46c5.16,0,18.33,1.1,19.9-5.34,2.9-.14,4.41-1,5.53-2.69,2.06-3.15,2.07-8.5,1.79-12.66-.21-3.21-.89-6.24-2.25-8.31a8.13,8.13,0,0,0-1.08-1.34,24.6,24.6,0,0,1,1.6,10.16c-.13,3.21-.46,7.91-4.2,8.93a6.42,6.42,0,0,1-6.71-9.78,3.51,3.51,0,0,0,2.79,3.77,3.26,3.26,0,0,1-.43-2.49c2.13,3.64,6,1.26,5.72-2.36-.24-2.86-2-4.1-4.08-4.13-2.28,0-3.72,1.37-6.85,1.44a18.17,18.17,0,0,1-6.48-1.08c-2.68-.83-6-1.74-7.79,1.3-1.47,2.49-.66,6.7,2.68,7.26a6.68,6.68,0,0,1-.61-3.52c1.83,4.17,6.77,4,5.82-1.52a6.63,6.63,0,0,1,1.14,8.39,6.48,6.48,0,0,1-4,2.76c-2.81.85-10.84,1.61-12.94-1.1-1.65-2.12-.74-5.19-.11-7.54a33.13,33.13,0,0,1,1.48-4.27,15.18,15.18,0,0,1,3.89-6.67q4.2-3.57,11.22-3.83c-2.65-1.6-8.31-1.07-14.62.31-1-6-2.58-6.82-1.15-14,10.47-.42,12.43-14,3.7-20,1.21-8.13-6.22-13.35-10.07-6.55q-2.88-6.06-3.16-10,5.41-5.4,12.14-5.34-6.58-4.87-12-3.64,4.62-6,12.74-4.86a28.14,28.14,0,0,1,12.55.09l2.26,0a16.92,16.92,0,0,0,2.5,8.34c1.67,2.65,3.55,4.74,5.19,7.68a30.49,30.49,0,0,1,3.05,7.34,30.41,30.41,0,0,0-4.61,6.56,33.56,33.56,0,0,0-3.47,14.92c-.08,7.79,2.28,15.67,7.64,20.42A118,118,0,0,1,130.25,90a18.52,18.52,0,0,0,.85-5.44c-.46-2.39-1.67-3.34-2.89-3.33a3.43,3.43,0,0,0-3.13,3.26,4,4,0,0,0,3.07,4.67,3.38,3.38,0,0,1-3.7-.67c-2.52-2.7-1-7.44,1.48-9a4.79,4.79,0,0,1,.82-2.91,3,3,0,0,0,.67,2.34,12.31,12.31,0,0,0,2.68-3.87c.14,4.82,1,6.83,1,9.52v0a8.53,8.53,0,0,0,0-3.67c-.24-1.09-.55-2.12-.78-3.62a10.34,10.34,0,0,0,7.54,8.59c5,1.43,11.38.37,15-3.87a31,31,0,0,0,3.59-5.36c1.45-2.63,2.84-5.65,4.48-8-8.36-6.36-17.7-8.81-26.58-1.89a18.13,18.13,0,0,1-5-.12,27.81,27.81,0,0,0-1.84-4.41l-7.67-14.06a14,14,0,0,0-2.66-1.79,15.48,15.48,0,0,0-7-1.88,34.91,34.91,0,0,0-9.48-.55,6.41,6.41,0,0,0,1.52-4.43,16.53,16.53,0,0,1-4,3.52,13.53,13.53,0,0,0,.79-6.31,23.14,23.14,0,0,1-4.67,6.49,11.64,11.64,0,0,0,.24-3.52,17.87,17.87,0,0,1-7.55,6,6.61,6.61,0,0,0-2.88,2.58,26.19,26.19,0,0,1-3.53.34c-1.58-1.62-2.46-1.62-2.66,0,0,0,0,.05,0,.08l.71,3.94a39.05,39.05,0,0,1-5.48-.21c.46.77,2.82,1.81,5.94,2.78h0l-5.9,6.57a25.32,25.32,0,0,0-4.13,6.31c-4.79-1.46-7.14-5.24-11-7.47a12.33,12.33,0,0,0-6.77-1.77h-.09C50.17,58,49,58.38,47.82,60c0,0,0,0,0,0-1.85,1.32-3,3.7-2.74,7.3.45,6.28,4.92,14,11.51,15.65-3.67,4.2-19.68,6.3-31.65,7.26A87,87,0,0,1,68,32.43q21.21-11.85,47.09-11.85,39,0,64.54,25.88L194.26,31.8A93.24,93.24,0,0,0,159.33,8.11,121.31,121.31,0,0,0,114.43,0Q82,0,55.81,14.34a104.8,104.8,0,0,0-41,39.76Q0,79.51,0,111t14.81,56.91a105,105,0,0,0,40.85,39.75Q81.69,222,114.12,222a120.61,120.61,0,0,0,45.06-8.27,94.31,94.31,0,0,0,35.08-23.85L179.6,175.24Q154.34,201.43,115.06,201.43Zm0-62.62a60.21,60.21,0,0,0,9.46-.48c-.17,2.59-3.26,3.1-9.34,3-6.69-.07-11-.53-11.89-2.73C106.21,138.93,110.53,138.84,115.07,138.81Zm11.8-52.28a1,1,0,1,1,.92-1A1,1,0,0,1,126.87,86.53Zm17.5-11.24a12.31,12.31,0,0,0-6.67,3.4q8.61.41,13.71-1.82c-2.74,5.94-15.32,6.57-18,1.33C136.32,75.24,140,74.26,144.37,75.29ZM84.65,87.76a6.42,6.42,0,0,0,6.67.09C90.17,91.57,86.47,91.3,84.65,87.76Zm2-2.15a.93.93,0,1,1,.92,1A1,1,0,0,1,86.67,85.61Zm-1.42-5.46a8.65,8.65,0,0,1-.64-4.07q1.32,3.18,3.58,3.94a5.36,5.36,0,0,1,.19-2.54c.91,3.16,2,3,3.42,5.14a8,8,0,0,1,1.31,4.75c-1-2.65-4.28-7.25-8-4.71A21.65,21.65,0,0,1,82,79.05,5.5,5.5,0,0,0,85.25,80.15ZM74.05,108.6c-.12,10.61,2.41,17.75,12.62,22C73,129.73,71,120.3,74.05,108.6ZM50,73.85a28,28,0,0,1-2.32-3.75c-1.59-3.21-2.05-6.52.09-10a7,7,0,0,1,3.54-1.21h0c5.28,1.6,7.16,4.13,8.58,6.68,1.21,2.15,2.07,4.32,4.39,5.91,2,1.39,4.28,1,5.4,2.31s1.32,4-1.11,3.94a14.09,14.09,0,0,1-4.5-1.46,28.39,28.39,0,0,1-7.64-4.82,27.51,27.51,0,0,0,5.65,9.71A24,24,0,0,1,50,73.85Zm-15.26,83.3a86.5,86.5,0,0,1-10.34-27.77c5.44-3.45,11.94-7.71,11.59-9.42,15.43,1.33,21.66-8.29,18.08-22.45A37,37,0,0,1,61,93.21q6.93,12.87.12,32.88,10.44,7.28,15.65,15.23a47.67,47.67,0,0,0-16.87-6.13,53.66,53.66,0,0,1,16,28.58Q61.8,144.33,48.52,139.14a109.28,109.28,0,0,1,14.07,26.69q2.32,11-4.36,16.26l-.74.67A85.75,85.75,0,0,1,34.77,157.15Z"/><path class="cls-1" d="M132.21,115q-1.17-3.45-5.14-2.85a11.5,11.5,0,0,1,5.14,2.85Z"/></g><g id="blue_letters" data-name="blue letters"><path class="cls-1" d="M284.09,133.49H228.68l-10.92,25.65H196.55L246.42,48.33h20.26l50,110.81H295.17Zm-6.81-16.14L256.39,68.9l-20.74,48.45Z"/><path class="cls-1" d="M429.26,48.33V159.14H408.68V111.65H351.37v47.49H330.79V48.33h20.58V94.08h57.31V48.33Z"/><path class="cls-1" d="M459,48.33H479.6v93.4h57.94v17.41H459Z"/><path class="cls-1" d="M637,141.88v17.26H553.84V48.33h80.9V65.58H574.42V94.39h53.51v16.94H574.42v30.55Z"/></g><g id="green_letters" data-name="green letters"><path class="cls-2" d="M219.91,191.75a6.42,6.42,0,0,1-2.1,4.43,7.11,7.11,0,0,1-4.87,1.6,6.93,6.93,0,0,1-3.74-1,6.66,6.66,0,0,1-2.5-2.86,10.23,10.23,0,0,1-.91-4.31v-1.66a10.28,10.28,0,0,1,.89-4.43,6.67,6.67,0,0,1,2.55-3,7.19,7.19,0,0,1,3.86-1,6.86,6.86,0,0,1,4.73,1.6,6.65,6.65,0,0,1,2.09,4.51h-3.08a4.42,4.42,0,0,0-1.11-2.77,3.73,3.73,0,0,0-2.63-.85,3.62,3.62,0,0,0-3.1,1.48,7.31,7.31,0,0,0-1.1,4.32v1.57a7.8,7.8,0,0,0,1,4.4,3.41,3.41,0,0,0,3,1.52,4,4,0,0,0,2.73-.82,4.26,4.26,0,0,0,1.16-2.72Z"/><path class="cls-2" d="M233.29,193.39h-6.88L225,197.53h-3.21l6.71-17.77h2.77L238,197.53h-3.23Zm-6-2.49h5.16l-2.58-7.37Zm3.51-15.9h3.38l-3.38,3.7H228.4Z"/><path class="cls-2" d="M244.66,179.76l5.13,13.62,5.11-13.62h4v17.77h-3.07v-5.86l.3-7.83-5.25,13.69h-2.21l-5.23-13.68.3,7.82v5.86h-3.07V179.76Z"/><path class="cls-2" d="M273.39,193.39H266.5l-1.44,4.14h-3.21l6.71-17.77h2.78l6.72,17.77h-3.22Zm-6-2.49h5.15l-2.58-7.37Z"/><path class="cls-2" d="M287.28,190.7h-3.44v6.83h-3.09V179.76H287a7.27,7.27,0,0,1,4.75,1.38,4.89,4.89,0,0,1,1.67,4,5,5,0,0,1-.86,3,5.44,5.44,0,0,1-2.4,1.85l4,7.4v.16h-3.3Zm-3.44-2.49H287a3.53,3.53,0,0,0,2.44-.79,2.74,2.74,0,0,0,.88-2.16,3,3,0,0,0-.81-2.21,3.47,3.47,0,0,0-2.42-.8h-3.26Z"/><path class="cls-2" d="M307,193.39h-6.89l-1.44,4.14h-3.21l6.71-17.77h2.78l6.72,17.77h-3.22Zm-6-2.49h5.15l-2.58-7.37Z"/><path class="cls-2" d="M335.35,197.53h-3.07v-7.88h-7.95v7.88h-3.09V179.76h3.09v7.4h7.95v-7.4h3.07Z"/><path class="cls-2" d="M353.86,189.11a10.91,10.91,0,0,1-.9,4.58,6.76,6.76,0,0,1-2.58,3,7.56,7.56,0,0,1-7.72,0,6.88,6.88,0,0,1-2.61-3,10.34,10.34,0,0,1-.93-4.5v-1a10.69,10.69,0,0,1,.92-4.59,6.86,6.86,0,0,1,2.6-3.05,7.55,7.55,0,0,1,7.7,0,6.76,6.76,0,0,1,2.59,3,10.85,10.85,0,0,1,.93,4.56Zm-3.09-.93a7.81,7.81,0,0,0-1.11-4.53,3.94,3.94,0,0,0-6.3,0,7.56,7.56,0,0,0-1.16,4.43v1a7.66,7.66,0,0,0,1.15,4.53,3.68,3.68,0,0,0,3.16,1.6,3.63,3.63,0,0,0,3.16-1.57,7.91,7.91,0,0,0,1.1-4.56Z"/><path class="cls-2" d="M371.71,197.53h-3.09l-7.92-12.61v12.61h-3.09V179.76h3.09l7.95,12.66V179.76h3.06Z"/><path class="cls-2" d="M376,197.53V179.76h5.25a8.24,8.24,0,0,1,4.18,1.05,7.12,7.12,0,0,1,2.82,3,9.41,9.41,0,0,1,1,4.42v.89a9.44,9.44,0,0,1-1,4.44,7.18,7.18,0,0,1-2.87,3,8.65,8.65,0,0,1-4.27,1Zm3.08-15.28v12.82h2a4.65,4.65,0,0,0,3.73-1.52,6.64,6.64,0,0,0,1.32-4.37v-1a6.79,6.79,0,0,0-1.26-4.42,4.45,4.45,0,0,0-3.64-1.52Z"/><path class="cls-2" d="M406,179.76v11.88a5.76,5.76,0,0,1-1.81,4.48,6.86,6.86,0,0,1-4.83,1.66,7,7,0,0,1-4.84-1.63,5.81,5.81,0,0,1-1.8-4.53V179.76h3.08v11.89a3.78,3.78,0,0,0,.9,2.72,3.52,3.52,0,0,0,2.66.94q3.57,0,3.57-3.76V179.76Z"/><path class="cls-2" d="M416.55,190.7H413.1v6.83H410V179.76h6.25a7.24,7.24,0,0,1,4.74,1.38,4.87,4.87,0,0,1,1.68,4,5,5,0,0,1-.86,3,5.55,5.55,0,0,1-2.4,1.85l4,7.4v.16h-3.31Zm-3.45-2.49h3.18a3.56,3.56,0,0,0,2.44-.79,2.74,2.74,0,0,0,.88-2.16,3,3,0,0,0-.81-2.21,3.48,3.48,0,0,0-2.43-.8H413.1Z"/><path class="cls-2" d="M436.68,189.6h-7.3v5.47h8.53v2.46H426.29V179.76h11.54v2.49h-8.45v4.91h7.3Z"/><path class="cls-2" d="M455.2,197.53h-3.09l-7.92-12.61v12.61H441.1V179.76h3.09l7.95,12.66V179.76h3.06Zm-2.56-22.26a3.26,3.26,0,0,1-.78,2.23,2.46,2.46,0,0,1-1.94.89,2.9,2.9,0,0,1-.83-.1,5.74,5.74,0,0,1-1-.47,4.54,4.54,0,0,0-.9-.44,2.15,2.15,0,0,0-.58-.07,1,1,0,0,0-.79.34,1.31,1.31,0,0,0-.32.91l-1.82-.1a3.35,3.35,0,0,1,.78-2.25,2.42,2.42,0,0,1,1.93-.92,3.59,3.59,0,0,1,1.68.55,3.47,3.47,0,0,0,1.62.55,1.05,1.05,0,0,0,.79-.35,1.28,1.28,0,0,0,.33-.92Z"/><path class="cls-2" d="M469.69,193.39h-6.88l-1.44,4.14h-3.21l6.71-17.77h2.77l6.73,17.77h-3.22Zm-6-2.49h5.15l-2.58-7.37Z"/><path class="cls-2" d="M484,197.53V179.76h5.25a8.24,8.24,0,0,1,4.18,1.05,7.14,7.14,0,0,1,2.83,3,9.53,9.53,0,0,1,1,4.42v.89a9.44,9.44,0,0,1-1,4.44,7.12,7.12,0,0,1-2.87,3,8.62,8.62,0,0,1-4.27,1Zm3.09-15.28v12.82h2a4.65,4.65,0,0,0,3.73-1.52,6.65,6.65,0,0,0,1.33-4.37v-1a6.79,6.79,0,0,0-1.26-4.42,4.48,4.48,0,0,0-3.65-1.52Z"/><path class="cls-2" d="M511.36,189.6h-7.3v5.47h8.53v2.46H501V179.76H512.5v2.49h-8.44v4.91h7.3Z"/><path class="cls-2" d="M525.77,195.07h8.07v2.46H522.68V179.76h3.09Z"/><path class="cls-2" d="M547.06,193.39h-6.88l-1.45,4.14h-3.21l6.72-17.77H545l6.73,17.77h-3.23Zm-6-2.49h5.15l-2.57-7.37Z"/><path class="cls-2" d="M564.41,195.07h8.07v2.46H561.33V179.76h3.08Z"/><path class="cls-2" d="M585.91,189.6h-7.3v5.47h8.54v2.46H575.53V179.76h11.53v2.49h-8.45v4.91h7.3Z"/><path class="cls-2" d="M603.9,191.75a6.42,6.42,0,0,1-2.1,4.43,7.13,7.13,0,0,1-4.87,1.6,6.91,6.91,0,0,1-3.74-1,6.66,6.66,0,0,1-2.5-2.86,10.39,10.39,0,0,1-.92-4.31v-1.66a10.28,10.28,0,0,1,.9-4.43,6.67,6.67,0,0,1,2.55-3,7.16,7.16,0,0,1,3.85-1,6.88,6.88,0,0,1,4.74,1.6,6.65,6.65,0,0,1,2.09,4.51h-3.08a4.42,4.42,0,0,0-1.11-2.77,3.74,3.74,0,0,0-2.64-.85,3.61,3.61,0,0,0-3.09,1.48,7.31,7.31,0,0,0-1.1,4.32v1.57a7.8,7.8,0,0,0,1,4.4,3.41,3.41,0,0,0,3,1.52,4,4,0,0,0,2.73-.82,4.26,4.26,0,0,0,1.16-2.72Z"/><path class="cls-2" d="M621.44,197.53h-3.07v-7.88h-8v7.88h-3.09V179.76h3.09v7.4h8v-7.4h3.07Z"/><path class="cls-2" d="M636.16,189.6h-7.3v5.47h8.53v2.46H625.77V179.76H637.3v2.49h-8.44v4.91h7.3Z"/></g></svg>