<?xml version="1.0" encoding="UTF-8" standalone="no"?>
<svg width="16px" height="14px" viewBox="0 0 16 14" version="1.1" xmlns="http://www.w3.org/2000/svg" xmlns:xlink="http://www.w3.org/1999/xlink">
    <!-- Generator: Sketch 50.2 (55047) - http://www.bohemiancoding.com/sketch -->
    <title>Mail Icon</title>
    <desc>Created with Sketch.</desc>
    <defs></defs>
    <g id="Page-1" stroke="none" stroke-width="1" fill="none" fill-rule="evenodd">
        <g id="home" transform="translate(-163.000000, -3432.000000)" fill="#67d54b">
            <g id="footer" transform="translate(0.000000, 3019.000000)">
                <g id="left" transform="translate(163.000000, 102.000000)">
                    <g id="paragraph">
                        <path d="M13.993,324.999988 L2.007,324.999988 C0.901745579,324.998899 0.00495082946,324.105233 0,322.999991 L0,313.000009 C-3.25635425e-06,312.468362 0.211671052,311.958591 0.588259142,311.583317 C0.964847232,311.208043 1.47535522,310.998152 2.007,311.000012 L13.993,311.000012 C15.0982544,311.001101 15.9950492,311.894767 16,313.000009 L16,322.999991 C16.0000033,323.531638 15.7883289,324.041409 15.4117409,324.416683 C15.0351528,324.791957 14.5246448,325.001848 13.993,324.999988 L13.993,324.999988 L13.993,324.999988 Z M14,322.999991 L14,314.471006 L9.055,319.560997 C8.77362743,319.842815 8.39173648,320.001177 7.9935,320.001177 C7.59526352,320.001177 7.21337257,319.842815 6.932,319.560997 L2,314.483006 L2,322.999991 L14,322.999991 L14,322.999991 L14,322.999991 Z M12.629,313.000009 L3.359,313.000009 L7.994,317.779 L12.629,313.000009 L12.629,313.000009 Z" id="Mail-Icon"></path>
                    </g>
                </g>
            </g>
        </g>
    </g>
</svg>