<?xml version="1.0" encoding="UTF-8" standalone="no"?>
<svg width="16px" height="16px" viewBox="0 0 16 16" version="1.1" xmlns="http://www.w3.org/2000/svg" xmlns:xlink="http://www.w3.org/1999/xlink">
    <!-- Generator: Sketch 50.2 (55047) - http://www.bohemiancoding.com/sketch -->
    <title>Phone</title>
    <desc>Created with Sketch.</desc>
    <defs></defs>
    <g id="Page-1" stroke="none" stroke-width="1" fill="none" fill-rule="evenodd">
        <g id="home" transform="translate(-163.000000, -3343.000000)" fill="#58F9FB" fill-rule="nonzero">
            <g id="footer" transform="translate(0.000000, 3019.000000)">
                <g id="left" transform="translate(163.000000, 102.000000)">
                    <g id="paragraph">
                        <path d="M15.6413092,234.655229 L13.1703588,232.178403 C12.6781912,231.687102 11.8631522,231.702029 11.353839,232.21268 L10.1089636,233.4601 C10.0303142,233.416655 9.94890685,233.371275 9.86331649,233.323131 C9.07719065,232.886561 8.00124354,232.288191 6.86903295,231.152585 C5.73346678,230.014584 5.13589715,228.934541 4.69898181,228.146127 C4.65287702,228.0626 4.60870283,227.982068 4.56508025,227.90559 L5.40057453,227.069447 L5.8113347,226.657249 C6.32142934,226.14586 6.33549521,225.329205 5.84447683,224.836475 L3.3735264,222.359373 C2.88250803,221.867334 2.06710128,221.882261 1.55700665,222.39365 L0.860608191,223.095634 L0.879638485,223.11457 C0.646126659,223.413202 0.45099719,223.757629 0.305787769,224.129054 C0.171932171,224.482603 0.0885941911,224.819982 0.0504876352,225.158051 C-0.275785385,227.869056 0.960264419,230.346711 4.31474454,233.708838 C8.95165506,238.355932 12.6883959,238.004871 12.8496018,237.987732 C13.2006969,237.945669 13.5371746,237.86159 13.8791223,237.72849 C14.2464897,237.584657 14.5899084,237.389361 14.887682,237.155827 L14.902897,237.169372 L15.6083969,236.47697 C16.1174343,235.965674 16.1320977,235.148742 15.6413092,234.655229 Z" id="Phone"></path>
                    </g>
                </g>
            </g>
        </g>
    </g>
</svg>