<?xml version="1.0" encoding="UTF-8"?>
<svg width="12px" height="17px" viewBox="0 0 12 17" version="1.1" xmlns="http://www.w3.org/2000/svg" xmlns:xlink="http://www.w3.org/1999/xlink">
    <!-- Generator: Sketch 53 (72520) - https://sketchapp.com -->
    <title>Icons/Pin Filled Icon</title>
    <desc>Created with Sketch.</desc>
    <g id="Components" stroke="none" stroke-width="1" fill="none" fill-rule="evenodd">
        <g id="10.-Base-Elements" transform="translate(-937.000000, -1829.000000)" fill="#67D54B">
            <g id="Icons" transform="translate(896.000000, 1430.000000)">
                <g id="Icons/Pin-Filled-Icon" transform="translate(41.000000, 399.000000)">
                    <path d="M6,17 C4.01,17 0,10.494 0,6.951 C0,3.6372915 2.6862915,0.951 6,0.951 C9.3137085,0.951 12,3.6372915 12,6.951 C12,10.494 7.99,17 6,17 L6,17 L6,17 Z M6,5.028 C4.90501813,5.0357191 4.02288484,5.92827056 4.02802186,7.02326758 C4.03315887,8.11826461 4.92362771,9.00250016 6.0186338,8.99994525 C7.1136399,8.99739033 7.99997279,8.10900907 8,7.014 C7.99814674,6.48542252 7.78639112,5.97923078 7.41131766,5.60678282 C7.03624419,5.23433487 6.52857745,5.02614022 6,5.028 L6,5.028 L6,5.028 Z" id="Pin-Filled-Icon"></path>
                </g>
            </g>
        </g>
    </g>
</svg>