<?xml version="1.0" encoding="UTF-8" standalone="no"?>
<svg width="14px" height="18px" viewBox="0 0 14 18" version="1.1" xmlns="http://www.w3.org/2000/svg" xmlns:xlink="http://www.w3.org/1999/xlink">
    <!-- Generator: Sketch 50.2 (55047) - http://www.bohemiancoding.com/sketch -->
    <title>Pin Filled Icon</title>
    <desc>Created with Sketch.</desc>
    <defs></defs>
    <g id="Page-1" stroke="none" stroke-width="1" fill="none" fill-rule="evenodd">
        <g id="home" transform="translate(-713.000000, -3484.000000)" fill="#FFFFFF">
            <g id="footer" transform="translate(0.000000, 3019.000000)">
                <g id="how-to-find-us" transform="translate(668.000000, 457.000000)">
                    <path d="M52,26.0245 C49.7680852,26.0245 45.2706088,18.7275968 45.2706088,14.7538912 C45.2706088,11.0373511 48.2834598,8.0245 52,8.0245 C55.7165402,8.0245 58.7293912,11.0373511 58.7293912,14.7538912 C58.7293912,18.7275968 54.2319148,26.0245 52,26.0245 L52,26.0245 L52,26.0245 Z M52,12.5971213 C50.7719064,12.6057788 49.7825364,13.6068335 49.7882979,14.834944 C49.7940594,16.0630546 50.7927783,17.0547824 52.020899,17.0519169 C53.2490198,17.0490514 54.2430999,16.0526739 54.2431304,14.8245498 C54.2410519,14.2317157 54.0035541,13.6639887 53.5828848,13.246264 C53.1622154,12.8285394 52.5928341,12.5950355 52,12.5971213 L52,12.5971213 L52,12.5971213 Z" id="Pin-Filled-Icon"></path>
                </g>
            </g>
        </g>
    </g>
</svg>