<?xml version="1.0" encoding="UTF-8" standalone="no"?>
<svg width="14px" height="10px" viewBox="0 0 14 10" version="1.1" xmlns="http://www.w3.org/2000/svg" xmlns:xlink="http://www.w3.org/1999/xlink">
    <!-- Generator: Sketch 50.2 (55047) - http://www.bohemiancoding.com/sketch -->
    <title>Icon</title>
    <desc>Created with Sketch.</desc>
    <defs></defs>
    <g id="Welcome" stroke="none" stroke-width="1" fill="none" fill-rule="evenodd">
        <g id="Objetivos-page" transform="translate(-1378.000000, -50.000000)" fill="#293480">
            <g id="twitter" transform="translate(1370.000000, 40.000000)">
                <path d="M22,11.1844903 C21.4844622,11.3846154 20.9316004,11.5209506 20.3495793,11.5822389 C20.9432642,11.2682927 21.3981505,10.7754847 21.6127635,10.1851157 C21.0575689,10.4740463 20.4428893,10.6841776 19.7885529,10.7979987 C19.2648505,10.3076923 18.5183704,10 17.6925769,10 C16.1063068,10 14.8197951,11.1307067 14.8197951,12.5253283 C14.8197951,12.7229518 14.8454553,12.9155722 14.8944431,13.1006879 C12.5068733,12.9956223 10.3910689,11.9899937 8.97392319,10.4627892 C8.72665167,10.8342714 8.58552029,11.2682927 8.58552029,11.7323327 C8.58552029,12.6078799 9.09289344,13.3796123 9.86270099,13.833646 C9.39265184,13.8198874 8.94942931,13.7060663 8.56219279,13.5171982 L8.56219279,13.5484678 C8.56219279,14.7729831 9.55244522,15.7923702 10.8657836,16.0237649 C10.6255103,16.0825516 10.3712405,16.1125704 10.1088061,16.1125704 C9.92451887,16.1125704 9.74373073,16.097561 9.56877447,16.0675422 C9.93384987,17.0694184 10.9952512,17.7998749 12.2514371,17.8198874 C11.268183,18.4978111 10.030659,18.9005629 8.68466217,18.9005629 C8.45255353,18.9005629 8.22394401,18.8893058 8,18.865541 C9.27134883,19.5822389 10.7806382,20 12.4018995,20 C17.6855786,20 20.5746897,16.1538462 20.5746897,12.8180113 C20.5746897,12.7079425 20.5723569,12.5991245 20.566525,12.4903064 C21.1275514,12.1350844 21.6150962,11.6898061 22,11.1844903" id="Icon"></path>
            </g>
        </g>
    </g>
</svg>