<?xml version="1.0" encoding="UTF-8"?>
<svg width="12px" height="7px" viewBox="0 0 12 7" version="1.1" xmlns="http://www.w3.org/2000/svg" xmlns:xlink="http://www.w3.org/1999/xlink">
    <!-- Generator: Sketch 53 (72520) - https://sketchapp.com -->
    <title>Arrow Up Icon</title>
    <desc>Created with Sketch.</desc>
    <g id="Page-1" stroke="none" stroke-width="1" fill="none" fill-rule="evenodd">
        <path d="M6.00037496,-1.03028697e-13 C6.4013311,-1.03028697e-13 6.77828987,0.157627823 7.06025903,0.442954136 L11.707532,5.27582098 C12.0974893,5.67088818 12.0974893,6.30938063 11.707532,6.70444783 C11.3165747,7.09851739 10.683644,7.09851739 10.2936866,6.70444783 L6.00037496,2.22774006 L1.70706329,6.70444783 C1.31710594,7.09851739 0.684175168,7.09851739 0.293217929,6.70444783 C-0.0977393098,6.30938063 -0.0977393098,5.67088818 0.293217929,5.27582098 L4.93949099,0.442954136 C5.22345993,0.157627823 5.59841892,-1.03028697e-13 6.00037496,-1.03028697e-13 L6.00037496,-1.03028697e-13 Z" id="Arrow-Up-Icon" fill="#BBBBBB" transform="translate(6.000000, 3.500000) scale(1, -1) translate(-6.000000, -3.500000) "></path>
    </g>
</svg>